<mxfile host="app.diagrams.net" modified="2021-06-07T05:20:56.047Z" agent="5.0 (Macintosh; Intel Mac OS X 10_15_7) AppleWebKit/537.36 (KHTML, like Gecko) Chrome/91.0.4472.77 Safari/537.36" etag="6J7Px3EOCmxT1dAQwm_3" version="14.7.2" type="github">
  <diagram id="C6SMAHJB6ap2hFzo_Ulz" name="Page-1">
    <mxGraphModel dx="3243" dy="1974" grid="1" gridSize="10" guides="1" tooltips="1" connect="1" arrows="1" fold="1" page="1" pageScale="1" pageWidth="2336" pageHeight="1654" math="0" shadow="0">
      <root>
        <mxCell id="0" />
        <mxCell id="1" parent="0" />
        <mxCell id="5ZmH1evjWhEYVLYZDHqn-68" value="" style="group" parent="1" vertex="1" connectable="0">
          <mxGeometry x="590" y="435" width="370" height="350" as="geometry" />
        </mxCell>
        <mxCell id="5ZmH1evjWhEYVLYZDHqn-47" value="" style="group" parent="5ZmH1evjWhEYVLYZDHqn-68" vertex="1" connectable="0">
          <mxGeometry y="60" width="335" height="290" as="geometry" />
        </mxCell>
        <mxCell id="5ZmH1evjWhEYVLYZDHqn-1" value="" style="ellipse;whiteSpace=wrap;html=1;verticalAlign=top;" parent="5ZmH1evjWhEYVLYZDHqn-47" vertex="1">
          <mxGeometry width="335" height="290" as="geometry" />
        </mxCell>
        <mxCell id="5ZmH1evjWhEYVLYZDHqn-10" value="" style="html=1;dashed=0;whitespace=wrap;fillColor=#2875E2;strokeColor=#ffffff;points=[[0.005,0.63,0],[0.1,0.2,0],[0.9,0.2,0],[0.5,0,0],[0.995,0.63,0],[0.72,0.99,0],[0.5,1,0],[0.28,0.99,0]];shape=mxgraph.kubernetes.icon;prIcon=pod" parent="5ZmH1evjWhEYVLYZDHqn-47" vertex="1">
          <mxGeometry x="107.5" y="108.5" width="30" height="33" as="geometry" />
        </mxCell>
        <mxCell id="5ZmH1evjWhEYVLYZDHqn-13" value="" style="shape=image;verticalLabelPosition=bottom;labelBackgroundColor=#ffffff;verticalAlign=top;aspect=fixed;imageAspect=0;image=https://upload.wikimedia.org/wikipedia/commons/thumb/5/54/Apache_ActiveMQ_Logo.svg/1280px-Apache_ActiveMQ_Logo.svg.png;" parent="5ZmH1evjWhEYVLYZDHqn-47" vertex="1">
          <mxGeometry x="114" y="206" width="74.73" height="24" as="geometry" />
        </mxCell>
        <mxCell id="5ZmH1evjWhEYVLYZDHqn-31" value="AntiVirus" style="pointerEvents=1;shadow=0;dashed=0;html=1;strokeColor=none;fillColor=#DF8C42;labelPosition=center;verticalLabelPosition=bottom;verticalAlign=top;align=center;outlineConnect=0;shape=mxgraph.veeam2.antivirus;" parent="5ZmH1evjWhEYVLYZDHqn-47" vertex="1">
          <mxGeometry x="270" y="153" width="30" height="30.5" as="geometry" />
        </mxCell>
        <mxCell id="5ZmH1evjWhEYVLYZDHqn-37" value="" style="html=1;dashed=0;whitespace=wrap;fillColor=#2875E2;strokeColor=#ffffff;points=[[0.005,0.63,0],[0.1,0.2,0],[0.9,0.2,0],[0.5,0,0],[0.995,0.63,0],[0.72,0.99,0],[0.5,1,0],[0.28,0.99,0]];shape=mxgraph.kubernetes.icon;prIcon=pod" parent="5ZmH1evjWhEYVLYZDHqn-47" vertex="1">
          <mxGeometry x="157.5" y="108.5" width="30" height="33" as="geometry" />
        </mxCell>
        <mxCell id="5ZmH1evjWhEYVLYZDHqn-38" value="" style="html=1;dashed=0;whitespace=wrap;fillColor=#2875E2;strokeColor=#ffffff;points=[[0.005,0.63,0],[0.1,0.2,0],[0.9,0.2,0],[0.5,0,0],[0.995,0.63,0],[0.72,0.99,0],[0.5,1,0],[0.28,0.99,0]];shape=mxgraph.kubernetes.icon;prIcon=pod" parent="5ZmH1evjWhEYVLYZDHqn-47" vertex="1">
          <mxGeometry x="197.5" y="108.5" width="30" height="33" as="geometry" />
        </mxCell>
        <mxCell id="5ZmH1evjWhEYVLYZDHqn-48" value="&lt;b&gt;MOSIP Core&lt;br&gt;&amp;nbsp;Modules&lt;/b&gt;" style="text;html=1;strokeColor=none;fillColor=none;align=center;verticalAlign=middle;whiteSpace=wrap;rounded=0;" parent="5ZmH1evjWhEYVLYZDHqn-47" vertex="1">
          <mxGeometry x="127.5" y="151.5" width="90" height="20" as="geometry" />
        </mxCell>
        <mxCell id="5ZmH1evjWhEYVLYZDHqn-5" value="ingress gateway" style="rounded=0;whiteSpace=wrap;html=1;" parent="5ZmH1evjWhEYVLYZDHqn-47" vertex="1">
          <mxGeometry x="30" y="170" width="50" height="51" as="geometry" />
        </mxCell>
        <mxCell id="5ZmH1evjWhEYVLYZDHqn-105" value="" style="endArrow=classic;startArrow=classic;html=1;entryX=0;entryY=1;entryDx=0;entryDy=0;entryPerimeter=0;" parent="5ZmH1evjWhEYVLYZDHqn-47" target="5ZmH1evjWhEYVLYZDHqn-36" edge="1">
          <mxGeometry width="50" height="50" relative="1" as="geometry">
            <mxPoint x="300" y="60" as="sourcePoint" />
            <mxPoint x="390" as="targetPoint" />
          </mxGeometry>
        </mxCell>
        <mxCell id="_CfNvKZe25XXiAyTABDu-4" value="ingress gateway" style="rounded=0;whiteSpace=wrap;html=1;" parent="5ZmH1evjWhEYVLYZDHqn-47" vertex="1">
          <mxGeometry x="30" y="75" width="50" height="51" as="geometry" />
        </mxCell>
        <mxCell id="_CfNvKZe25XXiAyTABDu-26" value="" style="endArrow=classic;startArrow=classic;html=1;exitX=1;exitY=0.75;exitDx=0;exitDy=0;" parent="5ZmH1evjWhEYVLYZDHqn-47" source="5ZmH1evjWhEYVLYZDHqn-5" target="5ZmH1evjWhEYVLYZDHqn-13" edge="1">
          <mxGeometry width="50" height="50" relative="1" as="geometry">
            <mxPoint x="80" y="250" as="sourcePoint" />
            <mxPoint x="130" y="200" as="targetPoint" />
          </mxGeometry>
        </mxCell>
        <mxCell id="jAywxGqHWvosadUpjKuu-3" value="" style="shape=image;verticalLabelPosition=bottom;labelBackgroundColor=#ffffff;verticalAlign=top;aspect=fixed;imageAspect=0;image=data:image/svg+xml,PHN2ZyB4bWxucz0iaHR0cDovL3d3dy53My5vcmcvMjAwMC9zdmciIGhlaWdodD0iMzAwIiB3aWR0aD0iMzAwLjAwMzY5MjYyNjk1MzEiIHZpZXdCb3g9Ii0wLjAwMDE2NzAxMjIxNDY2MDY0NDUzIDAgMzAwLjAwMzY5MjYyNjk1MzEgMzAwIj48ZyBmaWxsPSIjODgxNzFBIj48cGF0aCBkPSJNMjk5Ljc0NSAxNDUuNTZTMzA2LjY4NSAwIDE0Ni43MDUgMEM1LjIyNSAwIC44MDUgMTM5LjYzLjgwNSAxMzkuNjNTLTIwLjAwNSAzMDAgMTQ5Ljk2NSAzMDBjMTYzLjAyIDAgMTQ5Ljc4LTE1NC40NCAxNDkuNzgtMTU0LjQ0em0tMTk3LjgtNTAuODYzYzMwLjAxNy0xOC4zNjQgNjguMzY2LTcuMTQgODIuNzM1IDIwLjQ3NiAyLjcyNCA1LjIzNCAzLjA3IDEzLjI5MSAxLjM0NSAxOC43ODItNS45NTUgMTguOTU2LTIwLjAxNCAyOS41ODctMzkuMzEyIDM0LjEwMyA1LjY5LTQuODcgMTAuMjE4LTEwLjM5NCAxMS42NTktMTguMDI1YTI2LjQwMiAyNi40MDIgMCAwMC00LjU0My0yMC45NTYgMjYuNzYgMjYuNzYgMCAwMC0zMC44MS05LjM5Yy0xMS44ODIgNC41MTItMTguMzkgMTUuMzU1LTE3LjIxNyAyOC42ODQgMS4wOSAxMi4zOCAxMC40ODQgMjAuNDA1IDI4LjA2MSAyMy40NTMtMi42MjcgMS4zOS00LjY1IDIuNDE0LTYuNjMgMy41MTdhNjMuOTE4IDYzLjkxOCAwIDAwLTIwLjU0MyAxNy44NjhjLTEuNzg0IDIuNDA4LTMuMDEgMi42MDItNS43MjcuOTQxLTM1LjMzOC0yMS42MS0zNy42MS03NS44NDQuOTgyLTk5LjQ1M3ptLTI2LjQ0OSAxMzMuNTNjLTUuNjc3IDEuNDQxLTExLjE3OCAzLjU3NC0xNi45OCA1LjQ3OCAyLjgzOC0xOS4xNTIgMjUuMjY0LTM2Ljc4OSA0NC4yMy0zNC43NzdhNDguODgxIDQ4Ljg4MSAwIDAwLTkuMjQzIDI1Ljg5M2MtNi4zMDIgMS4xNjEtMTIuMjQgMS45NDItMTguMDA3IDMuNDA1em0xMjAuNzktMTg2Ljk4YzUuNjEuMjA2IDExLjIzLjEyIDE2Ljg0NC4yNTQgMS40MDIuMDkyIDIuNzk0LjI4NiA0LjE2OC41OGE0MC42MDcgNDAuNjA3IDAgMDEtNC4yMzYgNS40MzRjLTIuMDA3IDEuODctNC4yNzUgMy42OTgtNy4xNjYuODU2LS42OTYtLjY4NC0yLjMzOS0uNTI3LTMuNTQ5LS41NDMtNS41ODItLjA3My0xMS4xNzItLjI1Mi0xNi43NDYtLjA0MWExMDQuMDQgMTA0LjA0IDAgMDAtMTQuNDI1IDEuNDczYy0uODk0LjE2LTIuMjMgMy4xMzEtMS44MTkgNC4yMjcuOTcgMi41ODUgMi4zODMgNS40MzYgNC40NzggNy4wOSA3Ljc0IDYuMTEgMTUuOTcyIDExLjU5NSAyMy43NDggMTcuNjYzIDcuNTU2IDUuODk3IDE0LjU4OSAxMi4zNTggMTguODc1IDIxLjI1MyA1LjU4NCAxMS41OSA1Ljc0NyAyMy43NDMgMy4zMzkgMzUuOTUtNC4wMiAyMC4zNzgtMTQuMzMzIDM3LjI2MS0zMS4wMzIgNDkuNTI0LTYuNzI5IDQuOTQxLTE1LjA2IDcuNzQ2LTIyLjc2NyAxMS4yOTUtNi43NzggMy4xMjMtMTMuNzU1IDUuODEyLTIwLjU1IDguOTAxLTEyLjI0OCA1LjU3LTE5LjEzMiAxOC44NjUtMTcuMTA3IDMyLjY4OCAxLjg1OCAxMi42ODUgMTIuOTg3IDIzLjI3MSAyNS43MzUgMjUuNDU2IDE1LjI5MiAyLjYyMiAzMS4wNy03LjMxNiAzNC44MTItMjIuODYgNC4yMDYtMTcuNDc4LTUuMjktMzMuMDgzLTIzLjA2NS0zNy44MTMtLjc4My0uMjA4LTEuNTY5LS40MDUtMy4yMDEtLjgyNyA0Ljc1NC0yLjEyNCA4Ljg2MS0zLjYzOCAxMi42NTMtNS43MjRhMzQ3LjkzNCAzNDcuOTM0IDAgMDAxOS40OC0xMS41NjJjMS44NzUtMS4yIDIuODg3LTEuMiA0LjQ4Ni4xODIgMTIuMjI1IDEwLjU3IDE5LjUxOCAyMy43MTggMjEuNTYzIDM5Ljg0IDMuMzg0IDI2LjY4My05LjI0NyA1MS4xOTctMzMuMDcyIDYzLjc2MS0zNi44NiAxOS40NC04MS45NjUtMi42ODYtOTAuMTA2LTQzLjU1Mi02Ljk3NC0zNS4wMDMgMTcuNzMtNjYuNzU0IDQ3LjQ2Mi03Mi44ODQgMTIuNzg3LTIuNjM2IDI0LjQ4LTcuOTYgMzMuNTctMTcuODA3IDUuODY1LTYuMzU0IDguNzA4LTExLjgwNiA5LjY3Ny0xNC4yNjZhMzkuNTY1IDM5LjU2NSAwIDAwMi43MjEtMTQuNDY5IDMzLjg2NyAzMy44NjcgMCAwMC0yLjk2NS0xMi4zOThjLTMuMTA0LTcuMDc1LTE0Ljk5NS0xOC4zMy0xNy45NC0yMC43MDRsLTI4LTIxLjkyYy0uOTg3LS44MTMtMi4wOTktLjc1NC00LjUwNy0uNTkxLTIuODYxLjE5NC0xMC4xNzUuNTk5LTEzLjMzMS0uMjI4IDIuNTUzLTEuOTMzIDkuNTEzLTQuNzQ2IDEyLjUwMi03LjAwNy05LjA3NC02LjEzLTE5LjQzLTMuOTE2LTI4Ljk0MS01Ljc0NyAyLjE5OS00LjA5NSAxMy4wOC0xMC4zOSAxOS4yNy0xMS4wOWE5MS41MzMgOTEuNTMzIDAgMDAtMS42ODgtMTAuMjgyYy0uMzc4LTEuMzkxLTEuOTMxLTIuNzQtMy4yODYtMy41MzUtMy4yODYtMS45MjctNi43Ny0zLjUxNy0xMC41NS01LjQzM2EyMS45MzYgMjEuOTM2IDAgMDExMS4zMzMtMy41MDVBNDIuMzE2IDQyLjMxNiAwIDAxMTM0LjMgMjMuOTljNi43NDIgMS41NCAxMi4xMjQuNTM1IDE3LjQ4OC00LjA0OC00LjIyMi0xLjctOC40NDQtMy4yNTMtMTIuNTM4LTUuMDlhMTIzLjA0IDEyMy4wNCAwIDAxLTExLjc4LTYuMTU5YzEwLjYyMyAxLjQ3NiAyMC44OTcgNS40NTkgMzEuNzU4IDQuMDA0bC4yNzctMS40ODEtMjUuMjI5LTUuODczYzE1LjA0LTEuMzc2IDI5LjA0Mi0xLjYwNCA0Mi4zMDEgNC44NTUgMy43MzEgMS44MTcgNy42MzUgMy4zMjEgMTEuMjExIDUuMzk3IDEuNzQ0IDEuMDEyIDIuOTE5IDMuMDA4IDQuMzUgNC41NiAxLjEzNiAxLjIzMiAyLjA1IDIuODgzIDMuNDQ2IDMuNjI2IDUuMyAyLjgxOCAxMS4xMzQgMi45MjkgMTcuMDc4IDIuNzg3bC4xMy0xLjk5M2M1Ljk4MyAxLjg3IDEyLjcxNSA4Ljc2OCAxMi43MDQgMTMuODA2LTkuNjkgMC0xOS4zNzQtLjAzNy0yOS4wNTYuMDU0LTEuMDM0LjAxLTIuMDYyLjc2Ni0zLjA5MyAxLjE3NS45OC41NzEgMS45NDMgMS42IDIuOTQyIDEuNjM3eiIvPjxwYXRoIGQ9Ik0xODMuNzg1IDI2LjkwNmExLjQ4IDEuNDggMCAwMC0uMTg5IDIuMzY5IDIuMjMzIDIuMjMzIDAgMDAzLjA3Mi44MjFjLjkzMy0uNDcgMS44NDgtLjk3IDIuOTc1LTEuNTY2LS45MDgtLjc3NS0xLjYzNi0xLjQxNS0yLjM4NS0yLjAzMi0xLjMxOC0xLjA4Ni0yLjQxMS0uNDA0LTMuNDczLjQwOHoiLz48L2c+PC9zdmc+;" vertex="1" parent="5ZmH1evjWhEYVLYZDHqn-47">
          <mxGeometry x="225.5" y="45" width="26" height="26" as="geometry" />
        </mxCell>
        <mxCell id="5ZmH1evjWhEYVLYZDHqn-66" value="" style="shape=image;verticalLabelPosition=bottom;labelBackgroundColor=#ffffff;verticalAlign=top;aspect=fixed;imageAspect=0;image=https://miro.medium.com/max/2916/1*tOl9v0Q4QuGozvvGdkTvaA.png;" parent="5ZmH1evjWhEYVLYZDHqn-47" vertex="1">
          <mxGeometry x="130.67" y="4" width="73.66" height="33" as="geometry" />
        </mxCell>
        <mxCell id="jAywxGqHWvosadUpjKuu-4" value="Wireguard Mesh" style="text;html=1;strokeColor=none;fillColor=none;align=center;verticalAlign=middle;whiteSpace=wrap;rounded=0;" vertex="1" parent="5ZmH1evjWhEYVLYZDHqn-47">
          <mxGeometry x="193" y="64" width="107" height="27" as="geometry" />
        </mxCell>
        <mxCell id="jAywxGqHWvosadUpjKuu-5" value="" style="shape=image;verticalLabelPosition=bottom;labelBackgroundColor=#ffffff;verticalAlign=top;aspect=fixed;imageAspect=0;image=data:image/png,iVBORw0KGgoAAAANSUhEUgAAAyAAAAF0CAIAAABUksr3AABhkUlEQVR42uz9B3gc130v/M85M7O76L0TIAn2XiVRpLolS25yie3Y8XXi61Q7+Sc39SbPc+Mk/ufevImddpM4zhsnjmPHsR0XiaRISmwACIAEQRIEQTQCW7C72N777pTzPgBkWZYlitwZALuL7yd4FD2KhHB/e2bmO2fO/I7AGOMAAAAAQD8UJciPJKmqimwKAAAACFj68QaTV297UAcAAABAwNKNytiJXnMmJ6MUAAAAgIClD0Ggd+zhwZsulAIAAAAQsPRBOMIWJ7EkWUU1AAAAAAFLHyJPJ62hoTE3SgEAAAAIWDohRFXZiV6zrOB1QgAAAEDA0okg0HFz8No4XicEAAAABCydEI6TZeV4j1lBTywAAABAwNKLKPJjs/7bswGUAgAAABCwdJOTleM9s9h0CAAAABCwdCPy/PC4d8ISQikAAAAAAUsfhHDZnHy8x4xSAAAAAAKWbkSBHxpzTdswiQUAAAAIWDohhEtn5RO9mMQCAAAABCz9iAIdvOU2OyIoBQAAAAIW6IMQkkjmTvZZUAoAAAAELNCNKNL+EeecK4ZSAAAAIGCBTtUkJJbIvXQJk1gAAAAIWKAfQaC9151OXwKlAAAAQMACnQpKSTieOY1JLAAAAAQs0JHI04vDDk8giVIAAAAgYIFONaUkGE2fGbShFAAAAAhYoBuep+eH5vzhFEoBAACAgAU6BSxKvMHU2ctzKAUAAAACFuhGEOgrV+ZCsQxKAQAAgIAF+uApcfsT569gEgsAAAABC/TMWPTMoC2WyKIUAAAACFigU8DiidMbv3DVjlIAAAAgYIF+9aXk1IAtkcqhFAAAAAhYoA+Bp3OuaO91J0oBAACAgAX6lZiSU5csqbSEUgAAACBggT4EnpqdkUsj8ygFAAAAAhbohhDy0iVLOiujFAAAAAhYoA+BpzP28JVbLpQCAAAAAQt0wxh3oteSkxSUAgAAAAEL9CEKdMoaGhrzoBQAAAAIWKAblbETvWZZUVEKAAAABCzQhyDQcXNgeByTWAAAAAhYoBPCcYrKTvRYFJWhGgAAAAhYoA9BoGOz/ptTPpQCAAAAAQv0QTguJynHe80qJrEAAAAQsEAvosiPTHknLEGUAgAAAAEL9EE4LptTjveaGeawAAAAELBAL6LAD425p+dCKAUAAAACFuiDEC6TlY/3mFEKAAAABCzQjSjwg6OuWUcYpQAAAEDAAn0QwqUy0okeC0oBAACAgAW6MQi0/+a8bT6KUgAAACBggT4IIfFk7mQfJrEAAAAQsEA/okh7bzid3jhKAQAAgIAFOlWfkGgii0ksAAAABCzQk8jTnmsOlz+BUgAAACBggU5fACWhaOZ0vxWlAAAAQMAC3QgCvXDV7g0mUQoAAAAELNAHT4k/nH7l8hxKAQAAgIAFuhEEcm5oLhjJoBQAAAAIWKAPnlJ3IHluCJNYAAAACFigH4Enr1y2ReNZlAIAAAABC/TBU+rwxjGJBQAAgIAFehIoPTNgiydzKAUAAAACFuiD54ndE7s47EApAAAAELBAv++DktMDlmRaQikAAAAQsEAfAk+t87FLN5woBQAAAAIW6IYQ7qU+SyojoxQAAAAIWKAPgaczzsjlURdKAQAAgIAFuiGMO9lnzuYUlAIAAAABC/QhCHTaFhq67UYpAAAAELBANyrjTvSYJVlFKQAAABCwQB+iQCcsweFxD0oBAACAgAW6UVT1RI9ZURhKAQAAgIAF+hAEfmw2cGPKh1IAAAAgYIE+CMdJsnqid1ZVMYkFAACAgAU6EQU6MuUbmwmgFAAAAAhYoA9CuJykvNAzyxgmsQAAABCwQCeiyF+f8NyexSQWAAAAAhbohHBcNqe82GPGFBYAAAACFuhGFPhr455ZexilAAAAQMACfRDCpbPyyV4LSgEAAICABboRBf7STad1PopSAAAAIGCBPgjhEikJk1gAAAAIWKAng0D7bjgdnjhKAQAAgIAF+iCExJLZk32YxAIAAEDAAv0IAu255nD5EygFAAAAAhbo9G0REo5lTl2yohQAAAAIWKAbUaAXrtq9gSRKAQAAgIAFOn1hlAQi6TODNpQCAAAAAQt0Iwj0/NBcIJJGKQAAABCwQB88Jd5Q6uzlOZQCAAAAAQv0y1g8eeWyLRzLoBQAAAAIWKBTwKJ03pc4f9WOUgAAACBggW4EnpwZsMaSOZQCAAAAAQv0wfPU4YlfGMIkFgAAAAIW6PjlUXp6wJpIYRILAAAAAQt0IvBkzhXtu+5EKQAAABCwQDeE0pf6LamMhFIAAAAgYIE+BJ6YHdGBmy6UAgAAAAELdEM47mSfOZOVUQoAAAAELNCHINCZufDQmBulAAAAQMAC3aiMO95ryUkKSgEAAICABfoQBTppDQ7f9qIUAAAACFigG1VlJ3pnZVlFKQAAABCwQB+iQG+bAzemfCgFAAAAAhboRlbYiV6zojKUAgAAAAEL9CEK9Oa079YdP0oBAACAgAW6yUnK8Z5ZFZNYAAAACFigF1Hgr096J8xBlAIAAAABC/RBCJfNKS/0zDKGSSwAAAAELNCJKPDD455pWxilAAAAQMACfRDCZbLyCxdmUAoAAAAELNCNKPBXxz0zc5jEAgAAQMACnRDCJdPSiz2zKAUAAAACFuhGFPgrt9x2TxylAAAAQMACfRDCxVK5l/rMKAUAAAACFujGINCLw455XwKlAAAAQMACfRBCIonsqUsWlAIAAAABC3QjCvTCsN0TSKIUAAAACFig07dLSCiSOTNgRSkAAAAQsEA3gkDPDdkD4TRKAQAAgIAFOn3BlPjCqVcu21AKAAAABKwVoihqyW+LLPD05cu2UDSD4Q4AAICAtexUlQ3cdDGuxBMWT4nbnzw3NIfhDgAAgIC17Obcscu3XJSQkv+kAk/ODNiiiSxGPAAAAALW8nrl8lwkviYyB8/TeV/8wlU7RjwAAAAC1jIKxzJ91x0CT9bI5+UpOdNvTaQkDHoAAAAErOXSPzLv8id5ulYqwPPU5o73Xndg0AMAACBgLYt0Vj4zYKWUrK0vm3In+yzJNCaxAAAAELCWwbVxr2U+unaeDy4ReGqdj/aPzGPcAwAAIGDpTFbU0/2Wkm9/9aYIx710yZLOyhj6AAAACFh6mrKGbpsDgrAWP7sg0Bl7+MqoG0MfAAAAAUs3bHEKJ5tTyFr9yhnjTvSZszkFox8AAAABSx92d2x43CMI/Jr9ykWBTlmDw7c9GP0AAAAIWPp4edAWS+YoWdPfusq4471mSVZxAAAAACBgaRWMpPtvOEV+rW9xLQp03By4PuHFAQAAAICApVXPNYc3lKJrfP5qkayoJ/rMispQCgAAAASs/CXT8tmhOaSrJQaRH73jH532oxQAAAAIWPm7Muaam48Ja/754GskWX2xZxaTWAAAAAhYeZIV9eUBG6LE6xkEOjLpHTcHUAoAAAAErHzcuhOYtATXZnPRu8hKyosXzSomsQAAABCw7hdj7HS/JScrWH71BqLID497pm0hlAIAAAAB6/5Y5qPXJr3iGm4u+lYIx2Vz8os9s5jCAgAAQMC6Py8P2JJpiWD+6s2IAj805p6dC6MUAAAACFj3yhdK9d+cR3PRt0IIl8rIx3vNKAUAAAAC1r06d2UuEEmj/dVdCAI/ODpvcUZRCgAAAASst5dISReu2gWK6au7DgLCxZPS8Z5ZlAIAAAAB6+1dGXM5fQmex/TV2zCI/MBNl9ObQCkAAAAQsO5GktXT/Vasbb8XhHCxZPZ0vwWlAAAAQMC6m9E7/ilbmMfy9nsjCPT8kN0dwCQWAAAAAtZbO91vlWUVE1j3OhQICcUyZwZsKAUAAAAC1pubsYevT3hFAfnqPggCPTdk94fSKAUAAAAC1ps4M2BNZSWCFVj3g6fEH069fNmKUgAAACBgvZHbnxy46UJz0TwIPH3l8lwomkEpAAAAELB+zPmr9lAsg+aieeAp8QSTZ69gJRYAAAAC1uvEktkLw3YB01f5Enh6ZsAWiWMSCwAAIN+Lael9pIGR+Xlv3CDy+Hbzw1My70ucH7L/1NNbUQ0AgHuUSEkWZ4RxnJanJ2zxLndzZ63RgKsYAlYhyUrKmUEbxdp2jRmLJ2cGrO98eENVhQHVWHmKokYTOVYSn6W6wiAKmE6GNcE6H/nclwYUlWm5BKkqq600/sVvPd7eVImSImAVkBsT3hl7BM1FtQ4Lnto98YvDjuef2IRqrDynN/En/3Q5J8lF/RosYxyh3O/87AP7tjbhO4U1QlUXfrQFLE5lKCQCVsGNbHZmwKqqjEf7K80oJaf6LU8/1FVeJqIaK0xRWTiWyeaKPmBRykmSii8U1g5CXv3R+BsAAauwTNtCN6f9ArZ21mVk8NTmivXdcD53bCOqsSoBl1JSAgELlwoAWKOn8VL6MGcGbekiv+kvtFuxk32WdFZGKQAAANZowHJ44pdvuUQBr13oRuDprCPSPzKPUgAAANzfNbRkPsn5IXsklsV7rfoiHHeyz/LowQ6TQUA1AOD1sjllzh1TGcvvqQFjXHN9eX2NCZUEBKzCFY5leq470FxU//Eh0DtzoaFbnscPr0M1AOD13IHkH35pIJWR8uuMI8nqL3947/uf2IxKQkkqkUTSd93p8id4LG9fBoyxE72zOUlBKQDgDRSFaflh6EcACFiFLJ2Rz16Z47G2fXmIAj9hDV0b96IUAPAGr3UlyO8HAAGroF2b8JidEQHdopeNqrITfWZZQUMjAACAtRGwVJW9PGjDPPOyEgQ6NuMfmfKhFAAAAGsiYI2bg6Mzfmx2tqwIx0kyO95jVrCDAwAAQMkHLMa40wPWXA7rr5edQaQ3p323ZvwoBQAAQIkHLIcndvW2G81FV0ZOUo73zKqYxAIAACjtgHVmwBZL5vAqysoQBf76hHfCEkQpAAAASjZgBaPpSyPzaC66YgjhsjnleI8ZvWsAAADurog7uV8cdvhCSYOI54MrRxT4q+OeO3PhbRvqUY1lpahMUZmW2VlKdNj3XFXzT9OMcWzxrwAACFhFI5WRzl+Z4ymeDq4oQhYqf7zH/Dufqkfpl09zfdlvfuJg3u9sEo5TGfvu2Zk5dyzv7Q0UlbXUl//0s9uNBpp3SCIc172uBl8oACBgFY3Lt9w2VwzNRVeeQaCXb7msjkh3Zy2qsUwqyw2PH+7U+EvOX3VYXVGeyzNgMcYqy8Wnj6wXsAMVAMD9K8qAIivqywM2PHlYFYSQZFo63mdGKQqZojLtS+UY47AHJcD93pnoApUsAUU5gzU245+0BjF9tWqDRqADN10femprV1sVqgEAsIRSYjIKGldPqiozGQS8HY+AtSo3CNzJPktOUrC8fdVOIoTEEtkXe2b/fx8/gGoAACzZ3Fn317/z5OLbHVoucRxPSVNdOeqJgLXSzPORkSk/mouu8rgRaP/I/Aef2ryuBZNYAAALjAa+o6USdYAlxfeU7XS/NZFGc9HVHjeEhOOZk30WlAIAAKDoA1YgnB4cdYloLloARJ72Xnd6QymUAgAAoLgDVs91RyCSpmh/VQhDh5JQNH32sg2lAAAAKOKAlUxLrwzaBIrpq0LB8/SVwblgJINSAAAAFGvAunLLZffEebQ9LJyARYknlDx7BZNYAAAAxRmwJFk93W/lEK4KjMDTMwO2SCyLUgAAABRfwBq945+0hfB8sNDwlLj9iXNDcygFAABAkQUsxrjT/RZZZujOUIgZS6Cn+q2xZA6lAAAAKKaANesIX5/0igLiVUEGLErmffGLV+0oBQAAQDEFrDMDtlRGJpi/KuCM9dIlSyIloRQAAADFEbDcgeTAzXk0Fy3ogMXTOXes77oDpQAAACiOgHXxqj0UzaC5aKGPJEpO9lnSWRmlAAAAKPSAFUvmzg3NCeh9VfAEnlrmo/035lEKAACAQg9YAyPz8/4kj+eDRYFwJ/rMmZyCSgAAAAJW4crmlNMDVjwbLBYiT2fs4cGbmMQCAAAErAJ2Y9I764gImL4qIow70WvJYhILAAC0XEwYp6hMktWcpGSyciojZ3JyTlJkRVVVVhQfQSjYP5nK2Kl+q6qqPOULMkjAm40ngU7bgldvex492IFqrO4AZRijy3PSz+TkTFZJZaRIPBtPZKPJXCyRjSVzsqK+ehTw1GQQjAbeuPDXhb+vLDfUVBmqyw0GAy8KVBQW/opiAnAcJ8tqcvFomvfGfeF0MJIOx7OZjLwQrWRFklVJViRJlVUm8kQUF44dw+IRJIp8ZZlYV21qrDO1NlS0N1VWlhsqy0UErLc3bQvfmvELPI/xV1xUxk72WY7sbcMlBEpAMi0FwulZZ8TtT/jD6VA0E4plQtFMJisrKlMXf169o34t0hJCCUcWLP518R1bnhJKSblJrCwXq8oN9bWmlvqKtsaFq0JrY0VFmVhQFwaAZZXNKcFoZsoanLKGLPNRbzAZX7xFkRWmqIwsHEMcRxb+h3BLf7P4jxh77Thb/FtOZQv/J54nAr+QuupqjO1NlVu66nZtatjYUVNbZVrd7pmFG7BOX7JksrJBLNCAhYVhbzmkBH7c7B+Z9D64pw3VWMUBir68eYslcw5PfNISnLFHbO6oN5DMyaqiqIxxlC5kJkoJ+eHpn+cJ/3b3gYzjZIVxCsvmFsKZytjC72KL/y2lBpE21ZV3tVVv6ardtamxvamirtpUFIXSfhOFF5jWlFA0c2vGf3smMOuMOD3xVEaSFbZ0+7FEFIiY74U3Kykuf9LhiQ+NuUWB1laZNnRUb1tff3B786auWpNBQMB6ldMbH7rtFjAFUpRXdi4nq8d7LYd2tvLorwHFIxjN3Jr2DU9478yFPIGUrKgqYwKldCEGES1rFcgPLw1L21HwP36dyEmqwxO3uqKXbjgFnjbUmLpaqzpbqzd31W7fWN/aULHCXQBHpnxOX5x/u4ROCAlE0oqiknzvNyklt2f8Ak/Y6i2pURmrrjQe3deu12JfVWWDo65IPEPzusVRGWtvqjq4o7mUjqxoIjs+Gxwcdd2a8fnDaUVliwcU5Xmq4zOqhbsd8qPjNBzL+MOp4due77wyvbG95vCulqP7OjZ0VK/kqu4CDVjnhuzhWNZoKNzng1jfctf7Wn502jc64zu4vQXVWK0BijVY9yieyo2bg5euO8dmA/5QSmVs4bxPyYo9437DNFggkvYEk1fHPZSQqgrDxo6aHRsbDu5oXt9WXVNlXIE/z5lB27mhOcM9fPzFpzM077lSnpL+kfm+G85V/PZlRd20rvaBXa16XXdlRf3W6clpezi/XyjJ6hOHO0smYE1Ygheu2kemfG5/QlGZwNPFn5X4f00pMfwwbM04wtNzoe9fmN3SWfvwvvbHD3c21JjWaMAKx7I9w/YCn77CzMzdLxg5STl+0bx/azNa8K/WAMUjwrfl9MbPD9kHRl1Ob1xR1IVTfwGcdl5/YUhlpNE7/pvTvv86O93aWLF7c+ORvW3bN9Qv6zNEnpKlC+HKfFi62mdT3R9T8q/GiHx+LWML9S/2I0tR2PVJz6lL1pFpXzorC7zOk1X3HXR4yvGcLKtjs4FbM/4XL84++UDXs0fXtzVVrrmA1Xfd4Q4kC3b1FdwLUeBvTPpumwN7tzShGlBobK7YCxdmBkdd0USWp2RxyoovyHsVIgqvXm7d/qTTG3/lsq2tsWJXd8PR/R27NjVWVxqW5+4R85/A5RcQr094fnBxdnTaL8mKKPDGgrmUE/LqqkF/JP3N05OvXLY98/D69z7a3VRfvlYCViojn70yh2mPop9AIVxWkk/0mHdvbqSYS4GC4Qkkf3Bh9uKwPZLIigItohu51x4jeoKpeV/i/FV7R3PVoZ0tjx7s2LahXscJJ8Zhjh7y4fTFv35iYvCmS1JUoYAProV7KgMfTWT/88zUxauOj75z67PHNi7HkoCCC1jXJjxmZxE0F8X93dsSBX543DNtDe/orkc1Vn6AYg3WG8STuZN9lpN9Zn8kLQrUWLRz5K+tuJ/3xec8sVP9li2ddc89svGRAx1lRgFfNKw8SVZfumT5zsvTwWi6WNq8UUqMlA9E03//7ZtXxtyf/sDu7nW1pRywFEU9028tigsD7u/evkSES2fl472z2zc+QDCJteIDFCV/vcFR19dPjFvmozxfxNHqjUlrcV2LqnLjluCEJXii1/y+x7qPHegoN6GlFqwc63z0X1+8PXzbQykpurU9i7crZHjce2cu/JFntj7/xGYd364rrIA1YQmNzQbQoLJkiAI/NOY2OyKbu+pQDVgV2ZzyrTNT3z13R5bVklzZ+drKkpm58F/82/DPRzMfe247vndYGacuWb92YjwSzxT1wWUQaTItfeUHt29M+n79EwfbGit0+bUFFGUY484MWLMStrErqVN/Ii2d6LWgFLAqgtH0n/3L0DdPTzLGSr6vniBQQkkyLeF7hxWQTEtf+vbNv/vWSDyVK4Fbl8XpN3pjyvsH//fS9QlvqQUsuyc2dNuN6asSYxDowM35OVcMpYAVNueK/eE/DF4edRlEfo08pCY/7GUKsKwC4fT//srQCxdnlx6xlc4FS+S9weSf/vOV0/3WkgpYr1y2xZM5vHFWamd8QuKp3IleM0oBK2nCEvyTfxo0O8IGAxq+AOjJ7o790ZcHr094jAa+9K7YAk+zkvL33x75j1OTqrY9BgolYAUjmb7rTgH7UpUiQaB9I06nN45SwMq4csv1+X+67PKjnR6Azmbtkc/94+CsI1zCB9fS9gRfPzH+z9+/pShq0Qesi8N2XyiF9lcliRISiWeP92ASC1bC4Kjrz786HEvmsN4AQF/j5uAff3nQE0gahBK/dSGECAL//fMz//Ctm5KsFnHASmXkc0NoLlrKRJ723Zh3+xMoBSyrCXPwb//jRjan8DifAOidrv70n68EFtvIrYXPSwhnEPmT/Za/+88bubxevyuIMl0enZ9zx/B8sIRRSsLR9Ck9lg0CvBWHJ/6Ffx+OJrI8v7zpinEcY0xVmbL0ozBZURd+5IW/Ksqr/1xVmcoYOr5CCZi2hf+ffx2KxDIrkK4Y41T2oyNLkhd+cpIiyT86xFbs4DKK/JkB29Jt2/3+t6vfB0uW1TODtqI7B+Gced9DTaAXrtrf9/im5mXb+AleP0DX2nU9kcr91devuXyJZVoaoi4mqqXTuijwZUahzCjwPOEp5XliMvAmo0AJyebkTE6RFFVdiFlqTlLTGTmdlZduiCklhBBK8K4fFBOXP/HnXx3yh5dx7mrp4FJURunS0SQaDYLJwFeUCeUmsbxMNIh8Jisn01IqLaWzciarpHNyJitncwohHE/J0sG1LBnLwL9yZU4Q6W/8zMH7eg9v9QPW6B3/pCWI1RIlj1Lij6RP9Vs/9fwuVAN092/HxycsQd3T1dJEFGOsptLY1lS5saOmu6OmuaG8ocZUV2UyGniDyAsLyYpbOruzxbtqVWVZSZEkJZ6SwvFMOJpx+5N2b9zpjUfimXhq4SKxdFAs/CBsQQGLJrJ/+bVr88tz66KqTFZUSkldtWldc+XuzY3d62prq4w1lca6alO5SSA/kZoYYyrj4olcOJ6JxDPBSGbSGpqwBP2hVCyVo4QIvP5JyyjyLw9YW+srPv6u7cUUsE4PWKUS7bAMbyDy9MLVufc/samu2oRqgI6u3HK/PGgT9Vt4yxgnL7491FRXtnV93QO72nZ013e1Vr3tiXvpekApEQTKlYm11abO1qrX/9pwLOMLpbyh5IQ5NGULegLJcDxLOLI4GVYQSUtR1Jys3MsfhSzOTGvPr6v4YZce7OIIeuvBwL78ndExc0D3DaZkRVVU1lhbtn9b8yP727s7a1sb7ql/OiGEJ1xttbG22shxNRzHPX1kvSQrc+74hDl46Ybzjj2czsiiQHVc2E0IJ/D0m6cn25oqnjjcWRwBy+yIjEx6RQHpak2glHiDqXNX7B9551ZUA/SSykj/fmJcVlRd1nEyxiRZNRqEQ1ubnz6yfvfmxqa6ch1P0/U1pvoa0/aN9Y8f6lRV5vTGp+fC1ye8d+ZCnkBSUdnSM8dVrOeO7oZ7LGYyLd2eDSj5JiTG2KZ1NR1NlauYsBSVtTSU45WIt/LCxZmLw3Z909VSot22of7pI12Hdrbqsi+NKPCbO2s3d9a+97HuO3PhvhuO3mvzgUhKEKheM8SEEEVh//y9W90dNV1t1UUQsM4M2BJpqRinr3A45oen9FS/5dmjG6orDajGsg7QtfPc6XS/1eyM6HIayUlKRZn46MF1736ke/fmhuVeKUUp6Wqr7mqrfubI+kg8O20NXRlzj874Xb4EY5zAk1V5t/oDT27+wJOb7+XfdHjjv/XFHikj5XcNkxX2zMMbnn98E47XwjQ2E/jmqSlevwU8i6us1C1ddc8/vvnRgx0mo7Acx9T2jfXbN9a/7/HNL/VZzl6xReJZUdTnloXnSTCa+ftvjfzxZ46Vm4SCDlj+cGpgtFibi2KRe94DdN6fOH917oNPbUE1lnWArpFF7qFo+oWLZl7zaWRp9frDe9s//q4d2zaswt7ktVXGh/a2PbS3LRLP3pj09o/MT9lCwUiaUlKwJ0lFYdrLjoO1MMWTuS9/dzSZkfRaIZ2TlPqaso8/t/3ph7rKy8Tl/vO3NVb8wof2vPPo+m+emuq74eQYp8vEsCjQm3f83zt755Pv21nQAav3ujMYyWD11VojUHLqkvXpI+uryjGJBVqdvTLnDSaN2vbDkRW1qtzwc8/vevbohlVPM7VVxqce7HrqwS53INl33Xlx2D7njjG2uJczvm9YKf95ZmrWrk+7dsaYrLCH9rT9wgf33OPDNb10tVb/z//+wKGdLf9+YlyvtyBFgX7/wsyBHc27Nzfe/d9ctVNJMi29PGgr3iffONPljeep3RPrveZEKZZ1gK6FR4SpjHx+yK5xnbUkKx3NVX/0K0ff82h3Qc0VtTVW/PSz2774W0/87s89cGB7M1mcA0BXLVgBN6d9L12y6BJHFIXxPP35D+7+w196eIXT1avnQkKeObL+z//HYwd3NOdyivZfSAlJZ+V/feF2ZrH9SiEGrMujLocnzqO56JpEKXnpkjmdkVEK0OLGpNfhjWtZqCQramdL1R/+0pFdmxoK8zNWlotPPdj1p7/2yOc/e+zhve2UImbB8pJl9T9emlzsL6X1Lk1W1Mpy8bc/efgjz2xb3WZM7U2V/+sXj7zz4Q0Lh4/m3yYKdNwSODNoK8SAJcnq6QEbJoHWLIGn1vnYpRFMYoEm54fsKst/OllRWXWF4Xc/9eD61bixvi88JQe2N//Rrxz9///qI8f2dyzELFnBAIDlcHHYMTYb0J6HZEVtri//3C8//NihdYXwucpN4v/4b4c++s5tqh494HlKv3/uji+UKriAdXPaN2UNFvX0FW4gNSKEO9FrzuRwkViuAVrykxwOT/y22a9lYRJj3M++d9fW9XVFdNTs29r0uV9++POfPXZ4R6uiMvRwAn3FEtlvvzJN9Zi7qqsy/cGnH3rbhUoreqPCk5//4J4PP71V1jwLzFPiCab+6+x0wQWsM/1WWVGLeo0Ipt80D3Q6Y48M3pxHKZZpgJb8GqxJazCWyOX9fFCS1Z3d9c8e3VCMn33/tubP/+qx3/vUA93raiVZxbt4oJdT/VaHJ6bxhTtVZeUm8bc+eWj7xvoC/Iyfen7Xex/tzm//5tcTRXpx2GF3xwooYM3YwzemfNgbZ80HgAUnes1ZCZNYkI/Rab+mEUi45x/fJBTtiYin5InDnV/4rcd/7n27yk2ihKks0MwfTp3ss2h8uMQYI4T86k/vP7yrtTA/JqXklz6874lDnRozFiUklsx999ydAgpYLw/akmmp2Pc6xQ2jdoJAp23hoTEPSrEcA7S0HxEm09KkNcjTPM9gisraGisO7Wwt9jqUm4SPv2v75z97dNv6+pykqFj9Dtquzr5QSuPb/TlZff6JTU892FXIn9Qg0s98dF93R63GOxNRoP0j8xZntCAClsuf6L8xL4pFP32FR4S61FBl7ETvrCTh5lv/4pb2I8J5XyKSyOabrzhZVg9ub6ksF0ujGju6G/7Prz/ykXduM4o8Tk2Qn1A088plm+amJ+reLY2ffO/Owv+8ddWmz3x0X5mR17LgnRKSSEsn+8wFEbDOD9lDsTR2j4fX4v+4OXh9EpNYcH/84VQypWEinHDdnbWlVJCKMvEXPrjnb373yeeObcDwgDz0XLN7gpqmrxhjZSbx0x/YU2YUiuIj793a9J7HNuW03eEbFiex5r2JVQ5YsUTu4rBDwNbO8Dqqqh7vNcsKJrHgPsx7E3kv7GaMMxl4XbaYLTSbu+ramioxPOB+5STl4rBD68NBSX3PIxt2djcU0Qf/6DPbNnTUaLkAEUIi8Wz/m72wtaIBq3/EOe9LlMa+5VjpoBdB4G/d8d+c9qEU+g7Q0l6N4/TFtZxJeEorykQME4Alt2cD1vmYluXtisI6W6s+/My24vrg1ZWGn3luO8cRLSdMnqe91x3Zn+g6tHIBK5tTXrk8R/HuILwh/i8+tj/eY8b6XLh3sWROS/yklBixCyrAD/UMOyVZ0TL5oTL2gSc311YZi+6zP3KwY++WRi2TWDxP5tyxsRn/qgWsG5PeO3PhktkbB4vIdCQK/MiUb+yOH6XQcYCW9kLHjKZ9lghjDL2jAJaEopmRaa+gbfpqfVv1k4X95uBbEXj6wae28DT/SaylaYLBUdfqBCxVZacHrIrKkEvgTUYn4XKScrzXgkksuEepjKwlQaqMoQEbwJJbd/z+cFrLnp6Kqr7joa7Kon3sfnBHS/e6WkXNfxJL5OmNSV80kVuFgDVtC43e8aO5KLzl6BT4axOeSUsIpYC3xRgnazgVcoSTZTWayKKSABzHDdycZ5qOR1ZbZXz04LrirYBBpE8/1KVlVptS4g0l3/CUcIUSz5kBW0bbHSeUNkK4TFY+0WtmmMSCexgtWlq9kMVeiHffpRVgjQhGMtO2kJZXRiRZ3bu1udhfyz2yr72u2qTlKYqisusT3pUOWE5v/MqYSxAxfQV3Iwr80Jh7xh5BKeAe7jg1LVEnHDeLkQbAcdNzIV84nXfAYotrmB4/tK7Y69BSX35oR4uW3dMFSm+bA6mMtKIB69zQXDiWLbHmophmWY5piVRGOtFrQSl0GaClPRVoMvBaPqDA0zFzIJmWMFJgjbsx4dXy3EBVWWtDxYHtzSVQikcOdGh5D49S4gkmX3/ntuwBKxzL9Aw7hJJbfYWnnctBFPjB0XnrfBSl0D5AS/uJfG21SVuaJ95Acmw2gJECa1k2p0zaQlqWt8uyum97U2l0ldu9ubGptizvlVhLC10mraGVC1h9153uQLI0movCsqcCwiVSuRO9ZpQC7q6hxqTltpsQTlbUM/1WrPmDtWzel/D4NXX/FgV6cHtLaVSjqsKwd2uTpKUhFqWvX+e+vAErnZXPXpmjSFdwz4TFfZ0c7jhKAXfRVFeuattdSRTotQnv8LgXxYQ1a8YeTqTz39NTZVx1pXFHUe2Nc3d7tjRqWc5EKbF74sFoZiUC1rVxj9kZFXgsb4d7HqCL+zqdvIRJLLib9qZKg7b3Zgghiqp+9YXbr50NAdaaSWtQy38uK2r3upq6Iuze/la2bagvNwl5z2tTQkLRzLw3vuwBS1bU0wNWxrCJL9zn1IJIe687Xf4ESgFvHbAqqisMGruxCzy1zEe++LXhSBw9sWDNURRmd8eJhgkbprItXXWl9JCqtaGiub5czTe3LDXNtntiyx6wpqyh2zNBgS/NDb+wcGP5LNwExDKn+q0ohZYBWtqLi5obyhtqy7SvoDKI/I1J7//+yhU3Aj2sMcFo2h9OaYlHBpFu31BfSjUxGvjudbWyrGl952vNhpYxYL3UZ8lKJdtcFMvKlpXI0wtDdm8wiVLkPUBL+y1Cgae7NzfKig4p0iDyYzOB3//bS5duODFwYO3whdOhaCb/DliMM4r8hvbqEivL+rYqLSdPSsmcK7Y0ub5cAWvOHRue8IoCX7oTBLCMKCWBaBqTWFoGaMm/Hrd7SyNPiS6fUhSoL5z+i38b/quvX3N6MZUFa4LTG1dUTR2wWhoqaiqNJVaWjR21BjH/NnuEkGg8u7TqYLkC1ssDtlgii71xIP9rHk8vXLUHo2mUAt7Uru6GxrpyjcuwXiPwhDHu5UHb7/xVz5e/OzrnjqHCUNrs7hjTtDOM2tpYYTIKJVaWztYqLRtFUEIiyWwwkl6ugBWKZi6NOEt7a2dEx+W2uHdm6jQmsfIdoCV/e1NXbXpod6uWrS1+4taTM4h8PJn7wfmZ3/mrni98bfjmtC8nKRhNUJJee9ktP4xxrY0VpXeeqak01lUbtbQbTaYlXzi1XAHrwlW7L5Qq7fZXeES4AgSenr08F8UbXnkN0LXQQfPxw51GA69vs1BKiUHk0xn53JW5P/yHgf/5N33feGliei6cSGFfHSgdWUkJx7NaLtM8T9qbKkuvMiYD31xfoWXXZ8JxvuBCwNJ/ci+Vkc4P2dFcFLTjKfEEUxeGHR98ajOqAT9p56aG3ZsbR6Z8oqDzCYcQsvSYYMoamrAEv/PKnfamiu51Nbs2Ne7Z3NTaWGHA7vVQzJIpKZGStPRo4CltaSgvvcpQSuprTBrXHvjD6WUJWJdHXTY3mouCbhnrpUvmpx9aX1Uhohrwk8Pj+cc33Zz2M7Zcj0SX9lFVGbO7Y9b56IWrjooysbO1atO62l2bGjZ11tZXm6oqDPguoMgCVlqKJ7NaZkJ4nrQ2VJRkcRprNG91GlqGGSxZUc8M2LC7F+h2BeWJwxPvvW5/72ObUA34SYd3tR7Y1nRj0icu55QSWRiKdKmpXzanTFlDk5bgS5cs5Sahua68uaG8s7V6S1ddV1tVc115ZTluBqDQxVO5ZEbiaZ5HjcpYpclQbhJKM2DVlfO8pju2SDzDdA9Yt+74p6whQSj96Ss8AV0xlJKTfZanHuwqN+G6dR8DdI28wysK9Gfft2vSGpJkdWU+MiHca2/w5CTV7olZXdGhMTdHuAqT2FRf3t5Y2b2uZnNnXVtTeXN9RalehKCoReNZpua/DJupXHWFwWgozbFdV2XUsgE2IVwmq2Szsp7VYRx3qt+akxUtrzgWC0zSrRiBpzZXrO+687ljG1GNex+ga2ciefvG+ncd2/i983dW/sxDyI9mtl7NW+6YbT46ODrPcQtXoMba8ramii1ddZs6a1rqK5rry8uQt6AQAlYiq+UMoTJWWS6W6krE2moTpVRljOR5WiCZrJzO6BqwzI7I4mpTHmMXdL+MneyzPHG4s/R6roAu/tt7dkzZQuPm4Oqe8QlZuB/gfngKTGdlmztqdUUHbs4TQqorDXVVptaGik1dNVs669oaK1sakLdgdWjcf5NxrNwklurlvrpCpJSoMsvvWRXhuHROTus7g3W63xpP5YwiAhboTOCp2RHpH5l/+sh6VAN+UnmZ+NmP7v9f/9AfTeQEnhTMjQF5/R9mcVlxbs4duzzmIovtdmqrjC0N5Vu66nZ0N3R31DTUluGrhJWRSEma+pswzmTkS3UdQrlJ5CmRNdxoZXNKRlJ0C1j+cPry6LyIlwdhuS5W3Mk+y2MH1xkMSPDwJjZ31f76zxz44r9dy0pKYbaJoYTQ1+etjJRI5eye+NCYRxBoQ42pq7Xq4I6W/duau9fVYhsMWFapjKzlP1cXApZQwrf0JiOfyckkz+XWRFJUSVZ1K1DvNUcwmjGsmekrnP1WGM/T6bnQ5Vuuxw93ohr3MkDX4BX66L6Oz/60/Hf/OSIpKl/wrfgoIRxP+FenA7hQNOMPp6+Oe6sqxE3r6o7uazu0o7WrrQpjGZZDOitpvAKW8NMqSsnCp2N5XukJ4SRJkfSawUqkpJcv2/J+4RPgXo5nxriTfZaj+ztEASMN3tzTR9bzPPmHb99MpqUi6sZHOI5QQikROS6XU27P+EenfTVVU7s2NTx5uPOhPW1YfQj6yuY07QFFCGcyCCUcsESBanoJQGXZnE4B68qYy+GJC7jswXISeDphCV4b9zy8rx3VgLfy5ANdNZXGv/7GDV8oWYxz6oQQQSDC4q4Yl0ddV265t62ve/+Tm4/ua0fMAr0omndJL+HNDBYD1tIeXCTvoziRzulQIFlWzyzuyIunZrDMF56Fk8LxXrOsqKgG3MXBHS1/+mvH9m5pyklK8baroIvb9YgCvWMPf+Frw7/3132vDNqw+TQUTgop2Y/246+n5CeTVXQIWDenfZPWEJ7awAoQeXLrjv/GpA+lgLtb31b9+c8e/al3bCWEk+TiTuQCTwWezjjCf/WN63/wfy+Nzfjx/YJW2u48CCElHLAWPx3V0u6SEC6dlbWmIsZxL12yyCpmFGCFBr6sqMd7ZrXPb0PJKzOJv/ThvX/ymaM7NtbnJEVRWLHHLFGgt82Bz31p8CvfH0ukJXzFoOXaDW+FEo7nicYS6TCDNTMXvjntF3m8OQ8rRBT4m3f8o9OYxIJ7cnBHy//59Uc/85H9rY0VJRCzDAIvycp3zk7/wd9euj0bwPcLeWYIbfNPjDFZLtmJFcaYqjKNL2KT/Dci+qGXB63JjISWLbBilt6APdFnYdhUHO5NmVH4wFOb//K3H/+FD+1pbSzPSoqsqMU7fAghRpGfsYc/96WBH1yYxfcLedDex0Qq3bWwKuMUzZ9OFLU1VvAEkv0jLjQXhRUmCvz1Cc+4OYhSwL2rqzZ95Jltf/nbT/zGxw9u31DPGMtJSvE+axYFms0p/+/3Rr/x0iRuNmCFMY6TpRIOWEzWONXNOJHnNb30e35oLhzLGNFZG1b6Dp7L5pTjPeZdmxoIpk/hPmPWex7rfufRDSNTvp5h+4Ql6A2lVJXxlNJi2/mDUkIY942XJlJp6dMf3C3gXhfumda2SqyUZ7DYQsBSiYbWCIzjRJHkH7CiidyFqw70voJVun3nr457pm3h7RvrUQ24//FDH9zd+uDu1lA0M2UNXRlzTVhCnkAiJ6uUEJ4nxRLcl7Y7/N75O4qq/vJH9lHcb8C90dgmlHFF/3LuXagqpyhMY+upqgoNJR68Oe/0JUq41RgU9nWFS2ekE33mbRvqcU2BvNXXmI7ubz+6vz2ezFnmI9cnfGMzfoc3EU9ml+ILz5MCTy2ELNxvvNhjrqs2fey57fhO4V6UaWtaSzhOLv0ZLE2/o6Is34CVzSlnBqwUFzZY1UmIK6NuizO6qbMG1QCNqioM+7Y279vaLCuq05uwu2MTluCsI+zwJqLxLGNsIWzRAu39Qwgn8PTrL0221Jc/+WAXvk14Wxp3BSBE63bRhUxW1GQ6/7f3GMeJPG805LsG68akd8YewfNBWNWLCkmkcyf7zL/xiYOoBuhF4OmG9uoN7dWPHVqnqswdSJgd0duzAZs76vGngtG0orKlReWULkSuAnmYSAinKuxfX7y9bWN9e1Mlvke4u3KToGXoEkJSKUlW1JJc+ZdMS4sPQPNOWEwUeYNI8wlYispOD1hVpvLc2l3ejpd2CoEo0P6R+Q88tXl9WzWq8YYBihfLtKOUdDRXdTRXPXZoHWMsEMl4gkm7KzbnjnkCSX8k7Q+nUhlZVZnKGL+Qt1bzcSLPE18o9a8v3P79Tz+IBe9wdzWVRo2BPpnO5aTSDFjReE5RmYZ8xZmMQplRyCdg3bGFbt3x4wCGArhrJ7Fk9mSv5Vc/th/VgOUebE11ZU11ZXs2Ny79k0RKiiWz3mBqzh2zOKN2d9TpS6TSsrrYpZDnVyFvGUR+8Ob85VHXowfX4SuDuwcsou1wSGZkSVI4UwluQB5NZrU0GmUcV24UyvMLWKcHbKmsbBTRnQFWnyDQvhuODzy5uaMFj0VgRVWWi5XlYntT5YHtzUsrU4PR9JwrZnPFnL64y5ewe+LpjCQri5Nb/AqFLZVx/3X2zuFdrRpXMUNpq60yEg2TJJRwibSUK9EXCWOJ7NI9Up4BizGTUSgzifd9BDq98StjLmztDAWCEhKOZU/1W37xp/aiGrCKjAa+vamyvany4X3tr+WtKWto0hoyO8J2TzyVXghbAk8pXcaFW6JAp22hnmHHux7ZiC8F3kqZSSgzitmckt9QJIRkc3I0kW2qKyu94gTCGVlR+Xz3AGSMqygT81nkfn7IHolnMX2FFygLhyjQi9cc73tiU2tDBarx2gBF94oCyVtPPdiVk5RgNDM+Gxg3ByatIZc/mc3JdGlaazm+fEpeHrS946EuA54zwFuoLDNUVxp8wVTeYV9RmNuf2NxZW3rF8YaSWv5zxnFLufP+AlY4lum55hB4nLmhgFBKAuH0mX7rp96/G9WAAmQQ+bbGirbGiqePrE9nZdt89Makd2jMY3VFc5IiCjrPaAk8nXWEx2YCh3a2oPjw5gGrXKwqN3gCScrlH7Dm/YnSq4yiMn84rakhC2PN9eXc/W723D8y7/IneIrng3iLsLCIAj1/1R6IpFGK1wYo3iIsTGVGYUd3wyfes/OLv/34H/3K0Xc8tL7MKOYkRdVvV0Sy2GX74jUHqg1vxWjgqysMqoY1VCpT3f5k6VUmm5P94ZSWyWXGcS2Lj1PuIyqls/LLgzaK7qJQeCgl3lDqdL8VpXjtGotHhAXOIPKHd7b83qce+OvffeKj79xWXWnISYpev5zn6aQlGEvkCv1GAPcBq6e9uVLLXAEhNBhJq2qpfYOxZC4Sz+Q9qbzYZZS2Nd5nwBoe95idkZLpzqAyJsmqlt2UsjklKymyoqoqzhKrT+Dp2Stz4VgGpYDisq6l6uc/uOcLv/n4E4c7ZXnhdKJDwKLEE0yaHZGCPw/j+181nS1VWpYT8zxx+ZPJjFRiZbG74zlJzb8JlsqqK431Nab7CFiyop4ZsJZAjGCLuSorKRUm8dEDHe9/cnN+v6e+2viZj+774FNbdnQ31FWbeJ5kckoOeWv18JR4g8mXBzGJBcUas37/0w/+4k/tFXiq6JE7ZFm9Nesv9BMyEtaqDjkt89yUkkAk7QmkSqwsM/ZwNqeQ/O8ZWHWFob7mfha5T1pCt2cDxdudgTFOUVVFYZXl4q5NdUf3tR/a2bJuIb/nyWQUnjmy/pkj6xljkXjW4Y07vXGLM2pxRnzhdCyRS2dlSrjF97EJLZq9+Ys8Y/H0lctz73qkW2OTYoBVQQj50Du2NNSW/c03ruckRft6DIszWuC3uwoC1uppqiurqTQkUlJ+I41wnCQpd2yhLV0l9SKh1Rklmha4cy0N5eWL/VfvNWCdGbBmc0oxvvSrKKqsMJOB7+6sO7K37YFdrZu76nSMO4SQumpTXbVp75ampeKGopl5X9zpS5gdEYszEoikI/HsUrsR5K3lDViUzPuSZy/PffiZragGFKnHD62LxrNf/q9RzYcD9QSS8VSuqtxQuOdnVcU3vnoBq7ypriKWCOcd5RWVzdjDpVSTdFa2uWK8hqVQjLEtXXVLf39PAWvOHRu67RaFYkpXisoUReV5uq6l6vCu1qN727dtrF+BGThCuIZaU0Otae/WV/NWMJJ2+RMOb3zWEbHNR4ORTCiWeTVvEbIQuSjilp4Z6+VB67se2VhRJq7pQuAtwmL23se6b5sDvdedBg2nrKX2JdF4tmADFlt8jomve7UYDfy6looZeyj/8y1PrK6YJKsl03vcG0wGo2kt12TCca/1BrungPXKoC2WyBkNRRCwVJXJikoIaW0o37e1+diBjl2bGlbxWksI11hX1lhX9lreCoRT7mDS7o7NOiJzrlggkg7HMllZJYuTYTwleE9TU8DiicMbv3TD+dyxtd3GGm8RFjNKySffs/PmlC+VkfP+HglZuB2PJXOFfBsgK7gPWE3bNtRfGHZouKGlDk9s3hff0F5TGgWZtIbSWTnvvKiqrLbauK616l4DVjCa7rvhLPB8yhiTFcYYa6gp27Wp4diBjj1bGhtqCq6FPyFcU315U335D58nMn8o7Q2lbO7orD3i8MT84XQompEVlUPeyr/I5ESv+fHDndiLDYpXZ2vVA7tbz12Z07Iwg3HMH04v6wlN22oVltWvMwXkYev6epPIq4zLd8McLpmWrk94SyZgXZ/waJn7Vxlrrq9oa6y814B1cdjhC6UNIi3IXMXJisoYq6owbFtff2x/+4HtLW1NFUUUBZobypsbyvdsaVwKv/5w2hdK2VyRGXvE6U34QqlQLLP4WiJD3rpHAk/Nzmj/yPwzR9ajGlC8Hj3QcXHYofEMGY4uY+MSrQscCB4RrnaOb6lsqi93+5N5b2xMCBmZ8n3oHVtKYGVxIJIenw0JQv4fRFXZjo31r+128zYBK5WRzl2ZK8DO7UvdEExGYduGhod2tz20t219W3Wxf7uUkpaG8pYf5i1FYYFI2hdOWZwRsyPq9Ma9wWQ4nv1R3uKxfOst76tO9JofO9hhNGASC4p4dqGhxhSKZrTcVmVy8nKeshZnPlie3ZQIR3KYwVpV1ZXGDW3V874En2/fJ4End+bCvlC6paG82KsxNhuIxDOChud1hHA7NzX+qDh3/7cvj7rnXDGhYJ4PLi1dF3java728M6Wo/vbuztqS2Z53Rvw/A/z1ubGpa42wWjGF0qZF/PWvC/uCSSjiayiMpUxirz1Y8c8nbGHL4+6n3igE9WAIlVTaVzXXKVlWzTGWDq7jAGLp1TLzmmEcNkcAtYqO7Sz5dLIvIYvkcSSuSu3XHk3lSwcQ2NuLW1+VZU1VJdt31B/TwFLVtQzg9ZCWIK4tHSdp7StqeLgjpZj+9q3bqhf6jOxhkKDQF8/vyXJajiW8QZTs/aw1RV1euMufzKeyikKU1XG04W8taa7QTDueK/56P6Owny6DXAvt1iNdWUatyJZ1gQjCFQQqJY/XzorM4YXMlbTzk0N1RWGTE7Wcr3ou+F872Ob8n7OWAgcnvj1ca+W6SRFZRvX1bx+Ju9uGWV02j9lCa3i3jhLXdcpJQ01pr1bm4/ta9+zpbEaPSQXiQJtri9vrn81b+UkJZrIuvzJWXvEtpC3Eu5AIpHKyUt5iyf8Guu+xfN0yhYavu0+dqADowWKVHNdeSEftQaRF3ma93Z2lJJ4KifJRdlhsWR0tlR3tVVNWkMCn/dTQjpjj0zbQjs3NRRvHXquOaKJrJZuCarKDu9q/bHKvHW44U4PWHOrMfSXlq5zjFVXGnduanh4b/sDu1qXdvaBu5zpFrvGle9b7AeRk5R4MufwxhfzVszpi7t8iVRWliSFMW4pb3ElHbgI4VSFHe81P7S3rWQ20IS1prJC1HiYLusKCpOBNxp4lu8iLEJIOJYt0hbWJXQvSh7c3XZ7Nph3p0tCuExOvnjNUbwBK5mSeq45tExfsYXEYjiwvfmeAtacO3pj0ruSy5uWdrNRVVZRJu7aVH9kT/tDe9vamypxAOSXtxpqyxpqy/ZvW/i+s4t5a6n5lt0dc3ji7kAynZVzr89bJRe4BJ7cng3emPQ+uLsNQwKKkShoeuhCCCk3ict6nlkIWHnPYBEST2YTaamqwoDvehUd3tX6nVfu5CQl70uAyNP+EeeHn97S0lBRjBXoH5l3+RK8hsAjK+q29XVdrdX3FLDOXp5LpCXj8t9YsKUlVrJaZhQ2dtQ9uLv16L72De01Rf00t9AYRd5YW9ZYW3ZwR8vS/FYsmbO5YubFvGX3xD3BZDYrZ3IKRzjh1WYQRZ+3CCGSrL7YM3toZyuP9hZQhCTNjTiXe19OjdlIlpk3kGxrrMB3vYq6O2o2ddaMzeS/3TClJBjNvHBx9pc/vK/oPn4iJX3/wgxHOC0XCca4Rw6se8NF880DViCS7rnmEJf5wYqqMklRDQLf0VRxaOdCrtq+sR5zxSvAIPKNi3nr8M4f5S2LM2p1RubcsTlP3B9KpbPy0n4+PKWEckX6QFEUyOh0YHTat5QsoTT4gilfOLVrU0PJLyuMJyVt9xhcY93y9ltuqClj+U5hEcJlZWXGHt7/4w9WYIVRSp443Hnrjl/TyZanZy/PPXt044b2ImuZ9PJlm80V1ZI9VMaa6sof3N36hn/+5gHrwlV7IJJepqyjMiYvLl1vrit/YHfrkT3tuzY1lJnQr2j189bS+FjIW4ncnDvm8Mat81GzI+IPp1IZOZNT6ELeWuotWByXNkJITlJeuDh7YHszdtguGYO3XP/47ZtPH9nwix/aU1tdym+9+MOpvN8iZItPGFvql7c7UZPGAMfYtC2UbyMt0M3Rfe3fOjMVjGbynuxfemXhOy9P/95/f6CY7tZCqR9cmNH4xEyS1WP7Oxpqy94+YCXT0tkrc7ze3UVVxpTF3Wzqq017tzY9cqBjz5am2iq8EliQeWtx/8RDi/NbS/0g7J6YwxO3OKNmZzQYSSfTUiYnU/Lqy4mkgN9QFAV+ZMo3NhNY2g4SSoPKuHNDNut85Fc+sq9Uv1lZVj3BZN5NsFSVNdWXLffypuaGCi1biwg8vWOPxBO56kosw1pNddWmo/s7fnB+htfwGp0o8n03nEf3tz9SPO9uf/P0lC+U0rIaijGuzCg8+WY9F98kYA3edDncMVGn6SvGmKIu/NRUGLdvqD+6v/3gjpYSaPm6drzWD+LwztalpXyBcNrhjS/mrYjZGQ3HMvFULptTKCGUkoXEVUgNTwnhcpLyYq95z5YmzGGVDEIW7gSsrugf/ePgux7Z+LHntleX3ELpUCzj9Mb5fJdqqIraXF9es8w3sU21ZaJI8+5lRSkJRFI3Jr3oCbzqnn14w7krc0t3znkelRwnq+pXfjC2ZX3dck+d6qL3mvPsZZtB0JR2JFl5YFf7ttf1F33LgCUr7MygVXvft6VXAhWFlZeJ2zpqju5vP7yzdX17NQZxsRN42tpY0dpY8cCuV/OWP5Ry+hJ2d9zsiFhd0UgsE03mJFldnNzillLXamdE/tq4Z9Ia3NndgG+wxEajJCvfO3dnZNL7396789j+kup5NmEJReLZvJuMMI7b2FGz3K931NeYaiqM0UQ270lsWWGDo/MIWKuue13NkT1t54Y07S8u8NTtT3zl+2N/8PMPFvjOIt5g8qsvjqmMCRqOEcY4UaDPP7H5TT/rGwPWyJRvyhrS1MxUYbKiGgz8xo6aI7vbHtzTtmV9Hd7hKuErXFtTZVtT5Wt5yxtMufyJOddiSwhPLBzNRBJZRWF09fIWIVwmK5/oNe/Y2IBJrBJDCDGIvM0d+7N/GXr04LqfeffOzpZS6O3CGHfphkNVGZd3dyJK9i3/w9OmurLaKmM4nqH5LqMyCPzIlN/hiXe2VmE8r673Ptbdf3NeUVQtaz4MIt8/4vzu2dqPvnNbwX7SnKR8+bu33IGkxrXmsqIe3N6yd8ubH2hvDFhnBiyywgz3fwlc2iWQp7S9ueLg9paj+9u3b6w3YavdtZe3OporO5pfzVuSrHqDSXcgaXPFZu1hhzcejmUi8ayisqXG8iuWt0SBv3LLPWsPb1lfh6+pJAce47jzV+2jd/zPP7bp3Y91F/sTwylr8PqkT8z34YWisqbasi1dyz7aDSK/rqXKMh/Vcv8TS2aP98z+6scOYCSvru3dDQ/vbb84bNcYOygl/35ior6m7OmHugrwY6qMfeUHY4OjLo0fk7GFM89PPb3lrdbI/1gAujMXvrFwSN/HBU9dXF+1eB9Tvm9r07H97bs2N1ajaxy8GmvoupaqdS1Vb8hbFmfU7AjP+5LBaDoazy7tr0npq0u4lmeeg0umpZN9lt/85CF8LyWJLPZ7i8azXz1+++I1x4ee2vLY4XVlxqK8x2OMfffcnUxWyj9gKer2jQ0/+VrTcti2ob7nmkPjieLCsOPZYxs3d9ZiJK/uQfShd2wZGnNJsqZJLEqIorIvf+dmfY3x4PaCa5Hz7TNTx3vMBs191CVZfWBXy4G3bjLyY2eflwesybR0L3vxMMbkxVcCa6tNOzbUP3KgY9/WpqZ6LF2H+8hbWUnxBVPeYNK8kLci8/5EIJyOJrJsefKWKNL+m/Pvf2pzd0cNvotSRSkxUN7uif3Nf1w/NWB5/+Objx7oMBmKrLve8R7z5VtuUcPaW0rJYwc7VuaB+KbOGoPIa9mzmRCSTElfOz7+x7/yMI+NrVbV1vV1TxzuOtVv0Ti7w1OSyshf/Nq13/25Bw4UTJ8zxnHfPXvnm6entO+fxhhnMvIffXbbXR7C/Chguf3JgVHX3Ru5Mo5TZFVlrKJM3LO5/sjetsO7WjuasZsN5MMo8p2tVZ2tVUsbZGZyij+U8gSTZkfE7Iy6/QlfKBVP5thioKdU637VlJB4KnfqkuXX1sKTCMYxVrr32W83CpbOntNz4S/8+/COPvN7n9h8dF97scSs4XHP106Ma4lGsqJ2tVav2FVtY0dNY63JF07zGg5PUaTXxj2n+m3ve7wb58bV9bHntl+97Y7EsxrXb/A8Cceyf/YvQ7/xiYOF8AKKJCtffXH8hQszlOrQWEiSleeObXqr1VdvDFgXrtpD0cxbTV/JiqqqzGgQNm+of2BX68P72jd2VKNzI+jIZHg1by3Nb6WzcjCSdgeSM3Nhqyvq9ie9wVQinWPstbx139NbokD7bjjf/8Tm0l9OS7gSPjrvMTsu7UUxYQ1N2q5u31D/7ke6H9zdWlPYvfeGbrv/8mvX0llFyyaEisIeP7SusnyFlmrUVBq3rq93B50aX2ailHz1xbHm+vKH9rTifLiKWhrKf/rZ7V/6zk3tC2QFniTS0he/di0az7370Y2r+KEiscw//tdo7zWHIPDaz42KqnY0V37i3Tve5uMv/a9YIndh2P6Th/TS0nWBp+vbqg/taDm6v2NLVy12s4EVUGYUXv88MZWRw9HMvD8xMxe2uaMuX9IbTKayixOq95y3KCGRePZUv6UYN8y6zwxSyjNY95uqOY6b/P/Yu+/YuK57T+D33Da9N5YhOUMOOeykitXcm1Zet2jtOM6u43gdwynYIJssEOxmdx3s/vFegAc8PCBB8Iy8uMVxbCexZRXbcpGtYrmIshqLSIkUO4czbMPpc+8552HmSpSQyLBEDsmZ4e+TRPlHEMhbv+d3zj2/TMyaKXfob2wvv2WDOw/X+lBKP/h8+Nm/nI4lpKWkK0KozaS+fdOKLi7e1FJ68MuRJf4jLIsSKflf/tjxs8c23tAMGWs17bjR+9mZ8eM9k0vcI0qZK0xL+Devnejqn3rigaZVWUp0ui/0r385dX5kLlftlRGDHr+/2WJUX1PAOnJybHQyspCcFrrZlNh07X7nje1l9V6bXivAZQdWi1bNa9X6cpde6ecTT8hzkeTIZOTc8OzQxPx4MBaYjiVSMs5+c5HtV331vCVw7Mcdow/c5oP+soVrEQNQJWZNTMVefffs3kP9zT77XZur1tU7DfnxRc5IIPKHvd1HTo6h7KB/Kf9UdubCu8KXd2ut3WbUhKNLnVTiOTYcSf/D7z9/7N6GB27zCfwyrscKR1KnzoU++HRIELifP3GDSoTCwWWiwD61s/X8yKFYXFp6HYtlEWWY9z8b6rkw/fh9TbdurFix+noiJe/+uP+1d88mUnKu0lVawndv8dy60f3117Oy1nj/0UGEEKVU+XbAbFC11Tm2tZW3+aGbDcjLvKXhtRp9mVO/uaVU6e8UjqaGJubPD88NT0RGg5HJ6VgqjWVMskMoVtmFS7nVZ8KJdw4PPLmzpbgjSE4eYfk5zbjo4hzHIk7k0hL+vDNwrCtQZtdvaHJtbS1rqF61PWUmpmJvHxl4/9Oh2fmkIHBLPOAyJlWlpgdvq1nh38Jp1Tb77AePj4pLfhlzHErL+HdvnPmyJ/joDn9LbS638sKEjgYyo7KTvaHO/lBwOp6ScG2llUC99+9Uu03f3lH/7F9O5+RTI8QwKpGbmIr904vHPuoYeXSHv8G7vNs+SzI5emr8jQ/7+gZnWQ7xOQrrMiZul+GJB5uu5ZhkninHuyd7BqYQQhqV0O63bm0ru6GpxAmfBILCodMIOo1Q5tBvbS1byFuDY/P9o3NDE/OjgUhwNpFKy9nxA4MQ+vCL4fturcnnizzzxKdLepHk5JWBKV10s+HMM5Uyy7HxxhL/RYSQmN2MZmI6tuvA+bePXCh36FtqHa219jqPxWXVrsDqUhmTvsHZA8eGj54an5pNCDy79KUXNPurPXZvo/nrZi6Ww03ryw9/OZqTf4pFiOXR8Z7Jrv6pG5pL7txU1VJr12mERd8LoZn4hfFwV//06b7QRCg2H0tlkxzLcayYjXTwCL2q+2+t6RmY+fj4SK5qP8p+dZ+dHj/dF7ptY8WObZ46jyXnt1s0Ln3ZM7nnUH/n+SmGMnzu6qCUUpXA/fCRdvu1bYDCSzJ5/9Oheo/1pvXura1lbpcelq6Doslb29rLsuu3pNn51IWxcP/o3PBEZGQyMh6MvHPkwuP3N+XnxT4ejP7m1RNpmaAlvGtHAvNLmWziWDYwFfvlbz9ZdECimTcl872dLVft0pUPlIIWpcxIIHJhPLzvcL9Rp/KUGdfVOxu81qpSo0GvymEXChmT2fnUwOhcd//0id7g0MR8IiULHJuryam0hO/aXHXLhtX5XGtDg6uq1DgciOQqrwg8K2Ny6Pjo0ZPjLpu2wWvzlpucNq3DrLUYVVo1rxJ5ZScXlmWyMzAXW98mUvJMOBGciY+HYsMT8/0jc4HpeDSe7d/FIZZFy7+MuEjeoTzHfv/h1sHx+eFAWOBztXqJEQVOkvHbRwY+7hiuq7LeuqFiQ6PTYdEucS4yLeH+0fDRk+OfnhofC0WUJjY5HhfJ5LH7Gjc2XuvOXpmA9Z37GipKjMs62w3AKtKqBa1aKHfqlR7v8aQ8NZeYCScwoXxeDl6TKdw9MJ1My0sZ7XAL06KLrRIl05kfYwmjPYZlmUgsneeXB0IMxyGOy7w/oon06b7QibNBjYrPZHSnvqbc5C4xuGy6EpvWalKLAid83VdISidWGZNEUp4JJ0NziUAoNhqM9I/MjYdisUQ6LWXe9BzLqnL3ple2ZvjeN5pXa4Ss0wjbt3me/fMp5Ujm6NQgZYetwHR8LBglhAo8qxJ5UeA4Dgk8q8ve2ho1pxJ5ScJJCUdj0lw0mUrjZAqnJPliB/rM/6EVXGVVPBOONrPmp4+t/3/PfjofTeVwizLlzEoyPdUXOtUXMutVnnJTi8/u91g85SaDVhSFr//WDxOalnBoNnF+eLZ7YKarf2oiFI0nZZ5n+WXYTS0t4Ts3VT18V911JFStmq92w+a5YE3lLb6yxFCZzzs1ZF75mWfE6paTEWKW8pxSAtZy/ArLt2BGmZzis8/ucCw125883RdisstHRIFTiZzFoLIY1UadqNeJWrWgDLkpZSSZpCUsyZlQFU2kY0lpPpqOJiRJwmmJpCSciXHKm57J/ZueEKoW+f/2aPvKbN3+Ve7cXLXv0MDEdJRj2RwnYIQ49uJByxxqGSsZJkQT2brV5b+ZXQKgTCIj6NWWEw3Vtp8+tuFXz32RlnBuO5shdLHIFEmkT/UGv+yZVImcRs2b9KoSm9Zl05v0Is+zIs8KfCZSSzKRZCxJJC2T6blEYCoWnI1H41I8KWFMeY5lly1GpyTc6nP88JG263okwvUHAABXefQjBrEcUiZGKGVSaTmZlufmk/2jYUopufLFrswJZbOkssjv8p+M8qZfxtoJpZmA9d0Hmtr9q7xftkkv3n9bzW9fP7msm7Erp+aKWThY07LsNreU/vCbbb/+0wlCmeVoHrswsKGUiSekaFwaCUQICVBKL99N2cJg9taj2cEb4rLlSWUcyC9ndVKSiafU+LPHN17vR8cQsAAA4Otf6hf/4FBefc1PGSYt429t9z94my8ffp4dN3oOHx/tGpiGNSdFZvs2Tywp/e6vZ+jylKWvvNG4bLk3T35xScYlNt3/empzmeO6tz6BewAAAAoSpYwkkZ13+L6bN59rqEX+eztb1CJPYeODorPzjtonHmj6m9ptcZNk4rLpfvHUFm/ZYjrYQsACAIBCTFcUE/LwXXVPP9TG51O5qLHGtvMOX1oicI6KzyP/wf/kg82UMmth57C0hMsdumee3lpXZVncvwABCwAACgwmFCH0xANNT/2nlvyZTFnw6D31W1pL0xKGM1V8Hr677gffbONZhAkt7nTlqzA/84NtNUtoqwVrsAAABWaNTz9JMtFphB890n7n5sr8/AlVAvfjb6+bmk30j82JPLSgKTb331pjNqh+/acT87GUUHTnl9JMutrQ4Pofj2+0W5b0WS5UsAAABUaj4gmhkrwWJ6FSEq4sMfzfp7fkbbpSOCzan//XTW6nQYK5wmJ083r3M9/f6i0zpdJFVafEhBJC7r3Z+7+f3rLEdAUBCwBQeG7ZUPGLpza3+OyE0rSE10hBCxOKMb17c9WvfnLLqu/IcC08ZcZnnt7qqzTDXGFRavbZ//Ent2zf6pExKY7pwrREjDrxvz+24Sf/ZYN+sa2ZrgRThACAAqNV83dsqrx5vftUb/Ddo4MnzgYj8TTPsXm4GiknKGXSMnZatN+5r/HurVVs4XQzqyoz/vIH2/75pY6OnoBK4KENW5ExG1Q/e3xDU431xT3ds/PJ5e9BtFwIpZJM1vmdTz/UupRFVxCwAADFQODZjU0lG5tKBsbCH342dPTU+MRUTGmgVjQv8uwe8VgtcnduqvzP9zRU5HP7ga/gsGj+z9Nbnnur891PLhAMnZWLDYvQPTdV11VZ/+3NMyfOBlmECu4UpyWs14rf2u57ZHudWpXLUAQBCwBQ2KrLTdUPtT58d92xzsDBL0fPDszEEhKDCjtp0eyQWhS4zS2lD91Z21YIc4JfRacRfvzousZq2/O7zgRnEyLPQSmryNRUmP//j7Z98Pnwn9/rG52MCDzLFkI5WZIJx6Ib28sf3VG/6L0YlhqwOs9PjYeiosChYmpiCYoUxhQTwrGsUS/6KswWoxqOyVpgMaq3b/PcvbVqJBA91jXxRWegd2g2kZSyQ+pCSloYU5kQo1bc1u6696bq1jo7Koo8cuemSn+V5eV9PUdPjaclDFu9FxmB5+650bulpXTvoYF3j14IzSYELn9jliQThFCLz77zjtotraXL9HNeU8DSa4TPTk8cPD5KCOWhwAvybayfHe7LMmUQoxK4MqeuodrWXud0WrXQ7XWtQQhVlhoqSw3fuN13YWz+yMnRk72hofFwPIkZhvI8m7dRi2Su4czAoNypv2l9+e0bKypLjUV2dtwuw/98ctOXPZOvv9d35lxIxkTgV7OjuVImhDX4uR3nfOe+xu1bq/YdHvjo2EhwJs6yiOfyJUwrc+4CzzbX2P7jzdU3r3MLwjL+bNf0+vGUm575/taDx0df2tM1MhmBAi/Ik1sFE4IxFXnWpFf5Ks1NNfZ19Q63y6BVCwX+q9G0hFMSLujSRbYhK0NW6fMijmN9lWblE7axYLSjK3Dm/NS54dlwNC3LRGm8nw9HlxAqYcKxyGJUt9Y6bmovX9fg1GmEIr5z1ze4WmsdHd2TB74YOtEbmo+mVqbKmP3YlBJCMaGUMgLPatVCXZV1U3NJbjdzkmSSkvDiPqyTZCIX/v4jLpvuyW+0PHib78PPhz/qGB4aj2BCVnF4k22ITmRC9RrhhqaSHTd61je4VqCGiq7rC+eZcPLFPV0HvhjOPKGgwAtW/j7JPCCpjDMPII2aL3MYGqutbXWOphq71VQ8U4HB6fgf9nVni9iFnYARYr55t7/abcqTH2lqNtF5fupUX+js4MzEVDSVxjKmHIsyL3e0QnmLUqXLTeZNLwqczaxuqLa1+50bG112s2at3dGjk5GDHaMd3ZOD4+F4Urr0jQJiMv9Z6rOCueJQI4RUIisKnMuqLXPq3U6Dp8xY77VaTZrcvmhlTF7e2z0eii1urbeMaWO1decdtUVzihMp+Xj35MGOkc7+6XA0pYQHdkVuN0qpjCmlVCXyZQ7dpubS22+o8Jav3OMILWILmU9Pj7/wVteF8bDIswhqWWBFKjrKJkCCwJr16tpKc3Otvb3O6S4xqEXYJxpct2RKHpmMnB+eG5qYHwlERoOR+Vg6lcaSjBHK5C328jt+kS97eul/SuM2QiihlGdZUeQMWrGq1Oh1m5pq7E01NqNOXOOnQ5LJcGC+o2vyzPmp0clIJJZKpbHSzZDNngvEXnkK0JXH+NIigcyBXviTYRhRYAWB06mFMoe+3KmvKMkkqooSg0EnwsqBVTETTp7uC53oDXYNTIem44mUjBDDccryp9xEicwFoBQpMWVZpNcK3jJTa51jfYOrxm3K7ReCyxWwGIYJR1Ov7+/de3gglYa1imAZB/pKsUqnEdwuQ7vf2VRj83usZoMKjg/IFUJpIikHZ+IjgcjkTGw8FJsIRoOz8VhCkmQqY4xx5jq8ONd5KW5dfB9c+vDnUpy62MaHy27KJQicwLMaFW83a0rtujKnXimfVLgMOq3Awuj0and9IiXPhBNjwejEVCwwFZuciU9Ox2bDSQmTK1PUQvZiWcTzrFYlGHSCQScatKJJL7psOpdN67TpnBatRsXD3hD5NrwZGAt3D0yfH5kbGJmbmU+m0jglYSZb81aqW+jivXZlnv6bKyVbocxOslOaHb1wrErkNCJf5tTXVJhrKy1NNTaXVbeKZx8tZRPkk73B53d19gzOCHm8dBQU3NuOECpjqhI4q1HdUG1tq3M2VlvLXQaI8mBlYEwlGceT8lwkFY6m4kkplpASKTlbVsFpiWT/zPxXmWEUeJbnWYHnVCKnVfNqkdeoeJ1GsBhVFqPaqFeJ2b8AB3ZxkUs5F5FYWsYEYyJn8y6LkChm8qta5HUaXuA5lkUch+BNVFhSaTw1l8gm6VhgKh6aiU/NJabDyWRazpxu+eprOLlsquY5Vq8V7BaN3aTJRGq7ttSmK7HrDDoxT5bVoyV2mYjGpTc+7Nv10fl4Uob3H1j0M5RQirPFKqNOdLsMbX5HU429rspq0otwfAAAYK0Mb0jmXZBIybG4FEtKf99yFDGMOjuA0aoFlcjxHMrbpUooJ228ugemn9/VefpciOcKY3sxkA+UYhXGVCVydrPG77G2+x0NXpu7xMDBVQQAAKCQoVz1SU2k5DcPnHvjg3ORuCQKUMoCV5f9XJZikhmUmAyqCmVllc9eW2E26KBYBQAAAALW1Zwbnn3uzc4TZ4Mch6CUBRYoe88QQlUi57Lp/FWW9Q2u2ipLhcsASyYAAABAwPp6aQnvOzTw2nu9Bd1bGyydshGoskbRYlRXlhjb6xzNtfYat1mnFeD4AAAAgIB13QbH5194q/PzzgllUxk40GvHpY2SqUrkSu16pVjlq7S4XXo4OAAAACBgLZWMyf6jg6++ezY4E4dSVnFbKFYhhKwmdVWpsa3O0VrnqCo1FnfTDwAAAGClA5ZiPBR7aXfXoROjDKUcB4vfiwq51LVGLfJul77OY11f7/RVWEodOjg4AAAAIGAtL0rpgS9GXt7XPRaMigI0ii5sC8UqlkVWo8ZXaW7x2VvrlBbL0IACAAAAWKmApQjOxF/e2/PhsSFCKA+lrEKjFKsQQmqRqygx1nst6/xOX6XFadXCwQEAAABWLWApjpwYe3FP19DEvMhDKSvfLRSrOI61mdS+SkuLz97md5Q59BoVFKsAAACAvAlYDMPMzCdfebtn/9FBGRMoZeWhhWKVRsVXlhgaq23t9c7aSovVpIaDAwAAAORpwFIc6wy8sLvz/MicwLMIalmrTSlWYUxFgbOaVP4qa7PP3uZ3ltp1KhG+AAUAAAAKJGAxDDMfTb/yTs+7n1xIpjE0il6VUEXpxWKVTi1UlBqaa+xtfkddlcWkV8HxAQAAAAoyYClOng0+91Zn7+AMz7MslLJWIldRfKnFss2k9nuyxao6Z6lDBzEXAAAAKJKAxTBMPCm/eeDcXz/siyckgYcJqeUIVQyhFGeLVQat6C03tvudjTW22koLbAQKAAAAFGfAUvQOzvx+V+ep3iDPsdAoOicIpQRTTKhaxTvMmiafra3O0eC1uWw6joMjDAAAAKyBgKU0in7ro/4/v98bjqagu87iKMUqGRMWIZNB5Sk1rssWq3yVFtgIFAAAAFiLAUsxMBp+bteZju5JloVG0ddKabGMCdGqBadV21hta6tzNlRbS2w6WNgGAAAAQMDKkGTy9uGBV/f3zoQTUMr6Kspy9Ystlo1qT5mxvd7Z6LXVVJphI1AAAAAAAtbVDQciL+7uPHpqHCEoZV2mFKsIoVo1X+LQN3qt6xucvgpLiR1aLAMAAAAQsK4tTLz/6dAf3+kJTMdEYe0uzL7cYhkhm1njLTdlPwO0estNahGKVQAAAAAErOsXmIq9tLf7YMcIoWurUbRSqaKUatVCuUvf6LWta3BWu80uaLEMAAAAQMBaOsowhzpGXtzTPToZEYVibhRNKYNxJlaxLHJatEqxqslnqyw1qmA5GgAAAAABK+dmwokXdncd+GIEk2JrFJ3dXZ0gBmk1fEWJocFrW9/gqi432S0auEwBAAAACFjL7pOTYy/t7r4wHi70UhaljIwJpZTjWKdVW+M2t/sdzT57uVMP304CAAAAELBW2lwk9co7Pfs/GUxLmC+0DnoXi1UI6TSCp8yYLVY5PeUmq1ENVyQAAAAAAWuVdXQFXtzd1Ts8K/Isyu9a1kKxSuBZh0Xn91haax0ttfYSO7RYBgAAACBg5ZlYXHrtvd49B/sTKTkPkwomVMaEY5FOI3jLTY3VtnV+p9dtMulVcPEBAAAAELDy2ulzoed3dXb1TwsCy652KYtSKmNKKRUFzmnV1nusLbX21jqH06pdU3tMAAAAABCwCl4iJf/1g3NvHjgXS0grX8q62GJZJjzH6jRCtdvUVGNrr3fWuM06jQDXGQAAAAABq4D1DEw//1bX6b4QxyF2+bvrEEoxpoRQjZp3WrT13myxqtbhsGg5Dnr7AAAAABCwioUkkb2H+1/d3zs3n1yOzQ4uF6t41qgTfRXmdr+zqcbmKTdBi2UAAAAAFGfAUgyOhZ/f3fX5mQmWzUGjaMow9FKLZZ1GcNm0yjeADV6b1axmERSrAAAAALAGAhbDMDIm+48OvvJ2z9RcQlhUo2hKM4lKxpTnWItRVV1hXl/vbPDaqt0m2AgUAAAAAGsxYClGApGX9nYfOTGGGMpd20d8SqWKEKrXCiV2XWuto7XWXuex2s3QtQYAAAAAELCyKGU++Gzo5be7J0Kxr+quQynF2UlAnkV2i7bGbVpX76r3Wr3lJtgIFAAAAAAQsK5ucjr+0p6ujztGCKUL+1EtFKsMOrHMqW+usbfVOWqrLDYTdK0BAAAAAASsa/Nxx8jL+3qGJ+YRYjiOdWVbLK9rcPo9Vk+pkYdiFQAAAAAgYC3CdDj5+nu9PIs2NLqgxTIAAAAAIGABAAAAAOS7fw8AAP//PSFUZAFPDxgAAAAASUVORK5CYII=;" vertex="1" parent="5ZmH1evjWhEYVLYZDHqn-47">
          <mxGeometry x="108.03999999999999" y="48" width="49.46" height="23" as="geometry" />
        </mxCell>
        <mxCell id="jAywxGqHWvosadUpjKuu-6" value="Mesh" style="text;html=1;strokeColor=none;fillColor=none;align=center;verticalAlign=middle;whiteSpace=wrap;rounded=0;" vertex="1" parent="5ZmH1evjWhEYVLYZDHqn-47">
          <mxGeometry x="118" y="71" width="40" height="20" as="geometry" />
        </mxCell>
        <mxCell id="MJHEj-P5fFqU32tHb_-H-4" value="JCE/&lt;br&gt;PKCS11" style="text;html=1;strokeColor=none;fillColor=none;align=center;verticalAlign=middle;whiteSpace=wrap;rounded=0;rotation=-30;" parent="5ZmH1evjWhEYVLYZDHqn-68" vertex="1">
          <mxGeometry x="330" y="62" width="40" height="20" as="geometry" />
        </mxCell>
        <mxCell id="5ZmH1evjWhEYVLYZDHqn-7" value="Registration Client" style="pointerEvents=1;shadow=0;dashed=0;html=1;strokeColor=none;fillColor=#4495D1;labelPosition=center;verticalLabelPosition=bottom;verticalAlign=top;align=center;outlineConnect=0;shape=mxgraph.veeam.laptop;" parent="1" vertex="1">
          <mxGeometry x="30" y="646" width="40" height="30" as="geometry" />
        </mxCell>
        <mxCell id="5ZmH1evjWhEYVLYZDHqn-39" value="Git Repo" style="verticalLabelPosition=bottom;html=1;verticalAlign=top;align=center;strokeColor=none;fillColor=#00BEF2;shape=mxgraph.azure.git_repository;" parent="1" vertex="1">
          <mxGeometry x="899" y="346" width="50" height="50" as="geometry" />
        </mxCell>
        <mxCell id="5ZmH1evjWhEYVLYZDHqn-41" value="Docker Registry" style="shape=image;html=1;verticalAlign=top;verticalLabelPosition=bottom;labelBackgroundColor=#ffffff;imageAspect=0;aspect=fixed;image=https://cdn3.iconfinder.com/data/icons/logos-and-brands-adobe/512/97_Docker-128.png" parent="1" vertex="1">
          <mxGeometry x="740" y="310" width="69" height="69" as="geometry" />
        </mxCell>
        <mxCell id="5ZmH1evjWhEYVLYZDHqn-43" value="Cluster Admin" style="pointerEvents=1;shadow=0;dashed=0;html=1;strokeColor=none;fillColor=#4495D1;labelPosition=center;verticalLabelPosition=bottom;verticalAlign=top;align=center;outlineConnect=0;shape=mxgraph.veeam.laptop;" parent="1" vertex="1">
          <mxGeometry x="694.6699999999998" y="976" width="58.4" height="44" as="geometry" />
        </mxCell>
        <mxCell id="5ZmH1evjWhEYVLYZDHqn-44" value="Access Admin" style="pointerEvents=1;shadow=0;dashed=0;html=1;strokeColor=none;fillColor=#4495D1;labelPosition=center;verticalLabelPosition=bottom;verticalAlign=top;align=center;outlineConnect=0;shape=mxgraph.veeam.laptop;" parent="1" vertex="1">
          <mxGeometry x="950" y="926" width="58.4" height="44" as="geometry" />
        </mxCell>
        <mxCell id="5ZmH1evjWhEYVLYZDHqn-63" value="" style="group" parent="1" vertex="1" connectable="0">
          <mxGeometry x="397" y="676" width="90" height="50" as="geometry" />
        </mxCell>
        <mxCell id="5ZmH1evjWhEYVLYZDHqn-61" value="" style="group" parent="5ZmH1evjWhEYVLYZDHqn-63" vertex="1" connectable="0">
          <mxGeometry y="-2" width="90" height="40" as="geometry" />
        </mxCell>
        <mxCell id="5ZmH1evjWhEYVLYZDHqn-60" value="" style="rounded=0;whiteSpace=wrap;html=1;" parent="5ZmH1evjWhEYVLYZDHqn-61" vertex="1">
          <mxGeometry width="70" height="40" as="geometry" />
        </mxCell>
        <mxCell id="5ZmH1evjWhEYVLYZDHqn-58" value="" style="shape=image;verticalLabelPosition=bottom;labelBackgroundColor=#ffffff;verticalAlign=top;aspect=fixed;imageAspect=0;image=data:image/png,iVBORw0KGgoAAAANSUhEUgAAAhQAAABfCAMAAACHpK5RAAAAyVBMVEX///+IFxqDAAAAAACHExb9+/uGDhKAAACEAAD37u/Srq+GAwqcS02SJCfz8/OEAAWOjY3n0dLPzs63fn+8iInw4+TSt7hZV1iTKy6CgYHDk5Xk1NWXRUaUPD6lVlgRCAvfw8Sva2yYMzZmZGWko6PX19cvKyzCwcFST1C4t7hCPj/e3t7t7e0ZExWVlJV7eXrMo6Q0MDEmIiOpZWZsamu9vL1XVVa1d3n16em6hIasq6yIhoeenZ3jysupXmC8kZI8OTogHB10AAA3TqxmAAAe6klEQVR4nO1dC1fiuhaGPinlISKIIG8QFBAEFVRg9P7/H3Wb7J00bZNScGY843Kvs84IJGkeX/Y7aSoVT6ZTaZQW9S7QerHYNSoV80ClH/rGZHYuurl8xtbspoeIi/2+Ztu2lm+uyovSV/fth76AzMbi2kOAaxlpo5cz0utqw/G+LtVbtusWNTuzr1a+uo8/9Hep063ZVhrIqHV3nZdevrcnsHCqTfqLq/XWna/u5g/9NXKqeds10j65bl1kC52WRsHi2unF5st6+UN/k3a5jIAIw3Ity9Bq3aqvX25yGv6oXS++sKc/9Jeosudyg6x6sblfra7TmtUUQJGq5GwPKppX0LJr1R9r5JtTtakJciOd72wc09k0Gg1BTuwKqU222+vVc5rHUixr7Xxdf3/oj5N5IbIJj6zrToQPmC0uMuoWETRafvd3u/lDf5P2bjpEVmYV0SUFmHRpBSv/o1l8V9q0tDAmPLK7kqKmQ8lsZFDhLP8oFt+TmhE+QRe8Fy1plnOEWq0WK6Vd/P3+/tAfJ0fKJzz7I6NiAuZK8zUQrfxXe/tDf4W6GRkmipnVLgyKRsmzRhpmqpMWPVyZH73i21HdlrGJzDoY4TDLeRupthd9XMTLVY22ynSPuCcnLvIfsHwru8X6GqagVtvXO6X/QJ/+HO0Cu55TePebPdcHQaisVYvO0KZFFI/cKu7RLUK5XzElKivayvqEcf1OcharZobGCOn4DUvT0q2L7xswNt3wEtNxX9c7nc5OZBbZjBQ8IGpaUZ9GV7M8smMiqiWblHBrMUWq0IiEE/09MktdLRgRgp2h2c3sNw0AXUiVTM/UtO2i0ew2eEHzxZbBB1GRjTS8oA1rdfWj6/BoraMusi6SvqS/MlZfWaeLilFbmevsdzTIO1JjlA1aW4ksstNTFjbcyJ6pULFk7ZWz5rQAZFZL2TuTqsDu+utm3ql7eyNmhuzcNxQi1+rdnzaaIU93JSdnK2mpXdokTRu1RuQHpAab7Iyydx2qAxe/zrqptETLzHIzmqZlmG5ByU3H8MJ/k7Iyy4NTvlfLZ8Sgl1kvKkBkpCM7ZkHb1qKCBanOEKYugtLjyyR3J+9r165tNVe/CK33NU3jwDC07vcyRBgHV5HhUaYVSLOpKQRsMcIqKhAdUQqHvKGsirShfMy6/uwwT6Vqnk2PVTRW1coGGCfJaa43LS5WtNa3yk+sKsWBQG5aVP6dvdTVlU5H7AxzRVFhK/ZRgzMpo6eYVFB4bCUj+cO0YPaWoTUXkVGUXiy2PzLN74SKZiyjsNyiphVdw3Lrgm5hruVIisZAFpm4Na37zajsD7CMrC+a8R3DhGvVpQKsscrg/GlRk/wfI9NkI2ioNQrD0DLNVfnXr/Kql9HsvTgrL5ZMH7ea4c0EmqQr9185ex+Q7l7eU2q/uKuvmXDu1NNaSl25yuwxTW1k/RM0ehucvcEQLhSSgGyOXh1FqLNp1GtaU8ymkfMKqxN+VI/aH3Le2oA5h4mX2x8litkviqyYyEU9PTJmvSscFf90/Gf4ev82Gr2RPysq6WFo+06gkpltBUyEaEqOR8WIOwEkREbqj4Tfaj2KCk1apAyY/RrpUUbgx3nfPHJWUM6Ibol/iK4KZ6mrydswRYSmHBOWEfXTmXVXmJ1SXiJADCsSVAXfkyxXJ9UD1xbYxMUXSQknR22PZopKPNOXevyzimTPO1AlXHnHZMehsMuGssN0sdYJPSm+WlyZmNrJOp+ojlhknno7e02NRimWURchNyeVoTvRS/MizdQKJ2yixStLy6jYuA0pbqQiZmexnVr9HwlO/o+vT6mXj6Naq7WudoIaTiW+ik+o1sJSJ1FoKjXDY61C6uI1baenVEQINTL0WVIulDW8XxTRnroR2/lma1+vhhxGVVdaNLfySrLB9adn51ep13PvTzmjcCMKIxtI2pcgFRkotMh+r4P90Yk2BpERu4TI1CQJwCh8Gsxy9t0ZpbxlxJFluZpxfSGOo1KLr8JJo6BAp56RT+A3y9qWtRCw0yRPsmqx7u+GTZ8lBQXpqVWT17vQDg48U9sHHNFZW17UK5lvleHM+O12lBoN+1OV7WFdK+ehZPClM2Ver6ifqkRLuVEWXKC2h+EyGSYzUWogYBwJKGox4QjeG01cqkqSKhSeBBTMqZfpqOZCpNV1gCuge/8AKOizZKDIxjmCFeHLABmuLdpLMU5rkgKQI5lU5v329nU+SbHNGikXo9fVfSbyS1JZIgRgYaM4A9uDBEwqTTBcIw8DAZMh2RYngYImCvH+HgeKHQjWhJG4TZC1fg4UoEmlrZyUXycBBel43hc/8ZEMz87ckxFPJpMCKb2WqRTxynaTG15yX2hECIDuEd1wEBcpkokrU79g1H+FnqtS6mRQEPcBm9rjQAG+WEOL1QuUk/QpUGSZ1SO1cROCIm1ZnNMcAIU3r5b/KIRkqLEAQE2nFNRSszwMUZVZs1HLEuyPaAiV6nFWjnCQKsxPWB8xQcDQhHIFKAxXQRrzNKZtNu0MFKoqnKi3HrQtlU/tAH0OFMxlZuRlXApBYSk6X9RYMpBhMe6MoLBUJQn4L9izKjKzMiOIssoFSUnMXwgyocEFhNQojQ4SkGdYoa9RNIBjHDhCMyRi4AHgO5eDwuhVs3JaXOQwIYhH7gEURk1RQyCH4TSdOe3426dAseD7WsoqABRuWdX5X+s04zRMkQNQRKosuj0/U0RjRlZDYnyIroZOT6PzqPV8oGyu2Tx1ZNxYYsCB0zRsrKLt0aEfwBMWXoEFtz1UoIiLnjo7dMwxDoSgkJxkkRBMvRHGaUL6DCg2PvuObBO/ZzHpiaZzAUEII48dQMU1UsV0Gmse8mZHuqoSWSP4mTo8+c7yjWaHg0IqPqxcBBQQ6MwEhQPGT9G53YElD7m4miBgqDQ7HhRcOhp5+HgUKKB7Uo9aAvoMKETl35YIFwRFbNy4iqEDLKQCBaFNnQlaGwZbl+gsPgQ3ggvcqjHMVrj4yEpNF4kcpFIgpEs36JcMBhXq3AyJmI1ve5wGCmZBYET/GFCgQXRqOOMzoMBdjmGh6GwmAQWyXhdjNnGg8HYkOxwImr7Mn1nk+kPAXuWd7zTZ7zKTVAoKmjyVtgLCAQQnFxhgBgXtDwpZFlA4CRToa0AZdQwoUF9yT8y+/AQoYGKs1cqS/pwQFBBIZGw7HhQe80fdlUoriftJyHYJmCZ8o3eZ9iJ1Xnm9LUR7KEnqBtHgcx3odiAfg3JwA/16J4ECJxD3+zGgwJhQJJSTkE4HBWSaedsDFHFJ8lEiUDgZcYceAEWq0gLuQEV8M6oqCl6mgHHBvL2VDOulI3eRS0CxwTkSv7KDa2zaoYd7k0bXsIgYPA0Uv04FBaQLM23kaDodFAs0xLw9UYzuE0LJQEHN2qSgSG0MVEK88r3omgrrEtBCWersiqteCo+IBBRsHALoF2EVGuNmwjSCyqLhNyeBwkSpdDwoqnxtFC3vOjJiIzwZFCakehFXH2T4GEbYrZkIFBsEdUJQpLJgg9jeTEnWVABF4ESUAZrmwvdySxMq5KAA+0MYv4kxML8ILroQImmBgNkEfj9SpwBWaMPiHAOK+gFQbHq2jNi2PhkU8Fyw60EVy4RZRSJQwI6yWklBgQtCHixZUyPP93Ng1SEGsPN/bSicxjJQmOFDQeA1E92FaH8Y/IuC6Nw6ERRoH2Hc/neCwpEmJ/EVPhUUmPMEAWMoYISPVCYBhQn6IJM9h0HB5WVFBoq07+wPxDaoyVsVMgTqqoxuCSjAzDHyvLakl92Q/QFauMs+nwKKKvA6hr1/ABTIKHLwqQtaRShAkAAUDugjPDsyASjQt+7NvxQUvJdm10cF6adTzvmgrRiK6JIUFDtR4UvhobSgZo3uS84sEUeMuShBoUpAKjTWGENwcTIw9pHvymgV9KaivqfE3J8BhYkBF+wL2sWhoDVaVFnVyAtO9hp4PHckJgEFCCtvgmWLKkyE02KX1XiifZOtiVn+XU1WWQWKDWTesY3nABcI5Fg4aFmjzgLixHevKgJitZeylFatmob+W5fl3scGxEI7b4cGoWoKnWYoYee3gAIZBU8T5gslEoaO9/KBr1vXBnNE8zElAQXID2ufqslW1fWBaS56Fo1+pC/W14EbTKqqKLTMB+fRCx0eOxS0kHFAEIMZFDFViK3y/asKnRfl5J/19LNDYkPnoYyWDtj5RkpBznU6kNmGzPdzoICNwPTiFAsaGulA+J5FSRUjt/jIMzwVJAkoGpgUKfNTeG2J2HWqF7miZvdegtcwVPJSx1VaFe5FkwflB6q6drAkmqC47OC56vGnnppPYRh8Ko4BRQkqu6psCrMUpItiYIVPAwXGP4XkNeDHWiAmlDSfQmtxQzERKKBWXubRjKi7pVxuUQmJhE1OeSGBJT8oZeKhHvoBVsfKhXoFemAaylPcCvGoE0Hh+pg4ChS4ad2kV6Vkg07bk0Dh4EkBoRbztovYTAYKQ8BEIlCw2VHkcmtCsuRmnYs25eSUJ4iU6Wt72PkNoY8h/RnjpiAxIH4r3INyCigMy24JM3yMTsGS0OPuXRLpd4DiAl014gSiViF+lwQUlpapC06vo0AhTdEU02x2PUmYsJKLye5S5fLBokK/cvJbK9D+oA1QV6SonyTXKXjikZtvBa6TP8b6wAxBq5XwioHfAArsnh2YlgrmTAlfqnUKxvddo1cOcPtE4gOnDTXOCBnpDjYmu4uq2qyXVZf9qM6CsSFTl4Gjyc+HCvYHOHFE51Zy62MNozOa4dMPR+VT4H4pJkzR/A2ggPNoxVD+HxzPFGeCWR+Rkb9gWMsqd0K5OYlAATmpTfwjSla6Q9uSXLpQWXcras+VhydF/hoLQ5j8JqwoD2py+wOUf3EURziv8JSSG+78UaAAhB4+HYb0eVA46FIMoRA1LdefVu6niBBThCJ9PsIkbalVL4McEOz0IryzUUYV40V13FB5TUOWXUqA8JDcWYFouWDX14h86ghQOBB9dsMq71GgwEufovEoOX0eFC/oo9iEqBtIl0nFejQxRhlJ1UsCCnx+GdOlpYtrtxZhoW+WWk12tsZUOK8sZfazww4Foe0h8SBDNhaJV0cvPzvGzd3B3MwQLzoOFADioIEeU/qzoICxe4PvhQgTGPz81RhQoK0fSe1MAoo8P+YtPQ/qISJzvV67wcea2Vxt4W/djfw+1pir20G9bG6qKunB7Y/SLmx7HBn7AEHsp7gDHQcKTEYMeY5UBMnJnwAFu9ohergPvne5AR8X+8D0/FA+bBJQ4FlBYvzKciIMt7lwTE+hCDyt3susGiI/Xkj1kcgBY6FnYFzsqLEXkZ2U8OhoHVxBlsi5jwIFRiaKQV32OFCwBFY3d7gou3XydFBUDh3X8UODsQEx1I9D56oSgAKtLaLlO9G+WBl6t5MpaoyNsqFZabe4Ep4lDQkpnNwwbgiXdyHII732BVNDrptR59ZxUdIqZtMFpuFIUDhuKKChpgoeUOfJ1+gVjD000hFBUVZ7fhgoGMJjQWHu/cX16TAoSuinp4w+srIunpRdCKu2YLfAudaL/60sFTx6aYnQXxB4sTPdQ+2OFgkM+8jQObyVIHhh+JGgYFpF2o3PZ+GarfA4PMcSK8TrghrC7vSxpIRaRQfqxYfO0QcaVIUOgsJkqKb6wSLEKlyWyr/3ZX7dv5HbsP2XAG0k4OY8TkYLoYLivm7Bmxa6ePlIUFRqkGVSDnx3HCgctPuNAwfPudLtoweTQ2L9ocBNAPrQgttsSQl2LhvrgXwKWFEjI4rnQ6BgI8AgSyh/iluUFd8c3WliESHdInoQ1bqOM+A2vhZiKO5eaPjJwm7wnqljk2yqwJaMjv/VsaBIVdiV/ZJrx33atNCVJ/g00MHUi0kGN1ENISIGc6x6Dfl9M5iPVawKbStBYeKRD9EgPwAKhgnmZDaD4Q+uJ3b41JnBXEzhDo+o/Djw2ihfVqnktGAjhy4/OzrzCoXrdfh+iiNAkcri0I3MhXJ5S+y1na5gCO7QYdBRtw18E9ZhrUjcZoR5FnsalzyUebUD6SsKvXhQlPY4AptNecDTzc/tmVkerQ2/C8S3JbMR+ZGJP3npCwdDpZf7QAs5JI8GxaYWTHE4BRR+d9xmSQqLQt3ieUhChx3MmZLfMEGogd5Hoj6W8HoUJfBMgzsREqTjQafFm6vjQFGpGwh9wcMurjkN0Tqdxa+9/1rJcNDMd8NHzpIe8gkzdhwTZ+KmWdi5dXyOJm5F3/Y9ARSpMu+PtY4C2czmmGy1Agfg2O2zbvQVntgXTD6g9grw4jg2658GSQAK1HuFLAwlKJzqRZ6NIBBr9/e7td9UsrmaldEs/5nhSK2/WuGrCPghZxWhcyp2/EzHCTu3TkjcbYWEa/KrCLL+1YA+6yqmr6sVf95Mp1Gu+YHJXtD8ZCfyi7V6JbIBnEoZk5QM12RH/BR3jQLhuTGq2xxO3O0AY/ENcnb/YOAegnJ538z7t4u7YlBDuLjEynUtG3azvybhKIcaFIeDR8z+sNXoYYsQvmLpBFCgncenDyM9hnaQbCEp7MXXsy3bbb0sstlONbv4tWpq/i9aMzwiJqcNzcpdLLK7XWVT8f7rdLKLl1yG1SSWIwsVxrpDFn4EOUE29wuUbgbT8dJF8YgKuV3bvzbZCF6oLGoVFtcpfSdBWJ30fUoh8ZHgGrkK6Onq1EeWB+fx3VCy1ykp/gv6OJ40nvh6I0+xFHZNtSZo2lYx47qGVSxqwiu2jMwqssvxbk1aJ5Nxvb0LqZyGm/Ff3akRtw4cjTfUGgUhM899N0lS/JtBg/zg9UZuOnznwkrihfIZfPhmK9/0D4EiyV3JeLluzFtMWcpTeN+cAgq8RjmDHOxEUKQa+9BLskJSU3MXkgUtWW6gSjCUAVNJLfhWAkbBmCwxchPdT4F+wsClJcrRupJ3G2EYPkC+OlnpBWfEPywUVEGLSS5Vh9sF3Dj37wUUCW+9k06IMQHSgZGcCApyz5emrKrlu3IOWWnFvIaPTLFL7dwdsvoDN02jlPfEeqJjg5CxY+WA38aBwtLye9l6SC60EbxLL4Ff+dVITBayto0k92c3MpZlFdXXdKbw/YNuxLlVpa8ltIXLVV3aVPzz6vRNhUU4AFuhVRKRFlIOnUU++rLBNH3doMQo4ZVqskqsItx9Tl4ETQZ2MMCStXEoFzATBw4Y1+hY0fMAdUNEbovTbK21UAzgJRLxNCxe1BTfgm75SRaOyGCkL6uNkrO+zuWu4yeAvEf9OiKKOjn6AlNetdGiL1yPfecpcYbRUnDN4waqJKHrKNerrntFTXyhhVXU8q167FYws+umpRWDr8EwvLWo5V5wfhvX8MD4cRCC3jezC1qj2YkvXYV2IXeu04wOsbVadcv1hpq9F6JvOheE+qbJmacrXFQfcHvZCe8BOvy+YkWR8B3jZrL3GjtiMSc5ydqqdBatNNfeM7l1Ve7QClbaVdetvOZr/W6P3J3NH5BwHELJJO+FFkqLH0Q63HUzcpBDzN5x1mmiMRvF4l5gNSuhinvihWH/HpmNUqm6KyWAQ5A29MxQzMb8D5IT4RWByHXpomdrva54C3hJUMKF2OkPfSMyWyFeYaRjWZoQSTPcf/qVOD+kJmdtBzVl5VshKfn3JVrqd4r+0D9Pi1qQWcR5o3bcxa3J3xfzQ9+EGs2A6y7GybSpYUHXLn/Zu4V/6K+QmW2KXjhDlZ24Qy+nlWkdCIwmpkLhU7qq+cn68RTfeKEgu6flG1GlnrHFSI/8DVdpeKePXcseNR3nb2eMyBtobl/5L4N5v/94T950N+FFzuib7yJkng3Yn5Ozc/xjO398nG8n8GlIHzN4whdQv/IGr0jRASNa2hxgpduzqarbT2/9x8ezJ+wpb+0exn5+1n/ss1+ftjghhcGItsoedotl+djOhQecXTHM3V6dk64gDWihIY538jaSz6XXkdEAe28O6KS+YtERncMJ6xVM3dav6dWaXD2pBu5TYZHzg+xprbmLvD+wRXxZhpZeJb28gdFAbyPNvOFOHmY4M9NL/aF/OW7rd5PU+YNHN/qS/H8ka6TwocMMp8xHnQ7SPNP1u+fnO10/g7dh6Tde5bb+MTChFHuq7n0c4aeZrt+T1i7fAXpzXQpBr/6Vvuz3x0t9SSfvkre2JOswudQ/xpfer3d0LH0dF2c6uxJLz/TxNDAB+qvwiFfaFfIsfUa7wrtI0PKkb+mPI1aK0u2HN0MfbTLSu2nqqs2mcjYm7cw/YO62+ojWnMMizi7J/8esF/qDtyOG+pl84EFydmvLZi8IsdxuR/yRZpa4mt2rH+2/8QZ/do7kQfde1/vw/b3ucQ5zek4WpjDx6Em/n7CXF4XJvJm9T7G5NgXFlX43mhYK09GdTlfiVn/1Kp+/Luksmo83r+ypMEHw99PdjTclhb5+R8dxNVOA4rzdH5qp6fC+Tdek//HEWvPqTe/0+XBqFob3OkX4o459ni7pa18vl1B0eKa/0R5vWWWRL03v7uDjgKJ8PsMOj8YEqSN9eQsdEUFB5+lRPyf/kN4jKApLAIV+Q1sEUJx/4MIvERSsE2QZhgGsxVKpvmq6GkWGq6XXnUZls6k0dvSdMOlmN97lr6JXtsdp9/W7uQ5D6evIwxkKhoGNFCTz5gPGNrxZUlDc6n12wPWSPuAWm52O2yMCioeJUN3fb/dkwgr95eyZzJ8SFE86sm9wsfc/xOV8xF3stbs1UzJQmOzzHZ0AKfMjYKGF3ik/mc9Yh7fk2R4oYGnbkdWbM8Z09RECxWz2Pkn5oPiAUTNQiG0cAYoU9dqX97UM5umke7W09j+7t7+olk59n3AAFFv9dtie45+Pt8PJxOc88aB439J2LpdXBBTeBIz8eoT3MFB463mlBoXZJ8UK/csr/TEVxyn08au3HxkU+kuBf00exkFuFgUFe2y7n1KDIjVrk/8DoxBAMSflR/rbDZFxUlBgyQgobubtZ5ODYjYf0yn7PCgYbRqNXTab3TUan325tMfvdULk78nNZcFj/HSSCm839Pv3gck6GgeKu1S/PUyd6bcjMomFhzv+W2FM+DAHReFmbHoT1KZPRQ49at/cUfqggtYDhdcL7y8lKFKDd1p/eUUb6M9oV+/o4j9xRoEUAcUMHvauL0mfXqErekS1o1qFqQOE5rN3qLXU+wUCivNhezY9DhTLyUD3AIugaJ8V7tqvHBQwhBmb61NA8fvoVR/3PXomf98T6E70S/hlcj4aDeYz1r8DnMKr1z+f9YGzFz7G/LfCcwAUXlECio9L8tQrWK5Re3nj0Uf7gVoPHigKnir6FgMK2rnbt3f9klToz4TWuGhhFAUFedhN++OSdum1TSfg8jwVIqpVIKNIzds3QA8UhyNvYb2Zmx4HimHqTZ97TQIo3lKTD08/QVC0SSf6j1Dj60HBxUdBn70OBq/vujg/heclDPIQKMiWe5giKJ5vuHiYLj3W4INi6AFHIT4mN890+QgoiFIziAEFErC1/lLQKc4/5kFtWyE+znA8SvHh9XmLGoUoPrDHI/L789NRoPA+v+lXWw6K1PBhObz5beLj99Grv9ZbHelRnNUrtAsPgsJTKV/ZRt36PHxLdXwOinvyu2d9iMvNdIot/AugmN7dvH8cAgVogwFF02PKbP0K9OW/XGUefoiK5nT5UYAmlD6B2ZIxCg8Uga5QUHi4ep+pQbFlaCu0CR8GUBT6s7sZBwVRjj6oufdfBcXkBpnXGZmmxzkomaP39winOL8PGaYUFKkpsbEAFIWxDs6ZwhZEPYCiMDnTCTdQKZpjOqEAipT53l7CSpyfhZ73Oh7Sb6aXUU5BhNGIdv38jrY7YK0jUpn1MaLKbAynILyPKaVSUHgIj+EUt3Q30D+I7g6gILr0hw+K1O1y9h8ExYCv9ZzNzlR/T6Vu9OXj/evr2Y2vU3BZPQ6L7cLynfxDJhtF+vBBfz4bbO/H+gOdTc9Gvbqa9x90CjHzcfZ4hXRLphh9NefUki1cUlCkzm9gJQqXYSY11/XLs+2t1zroFO05NjYnQ9jqba/r2/mH/kZ6NNFn8+3t02D+AYzn8sMUBzwgPQMKY33qD3TeloHCnEdXj4Ni+tCe398+ba+WlNd6ehRllpM7EB8ImYGO4oN1Yn5L5nr8Bp/UPt0/SU9jxuTGj+y7+7HX/dH8ztOIZ5dsWiZjzma3s5CCb/Z53fNn0FEKW6JQz8a4yUfPl4Qe4Ufz/pLReEDqsEV/Jb0pvKECOnmG+R2EQZgavo2Xbb19B+7SN7812tBw7hkn7Yc5jmz4eOMZGO2HR1jXK+ZCmfbJX0+88vM87Jm7fWRrcn8Z0CnOxyANC/OITL0fszqTR2IjtW/65zDmPjQxfSSfh2xit9S5Nw8MYfLMuvT4JaAwWVzJ9ANM+Od0eH4+9OfJ/33yEFbV/fCT3wytPuVfU/LLczIDj6Z/8XL4r6lHTAOv9SFvPdga7aH3o7+K5oR0hflcxF74PQt0zx9XdIDBUZqROsI3iudSj5s/5kJ0CGZMl/6rRKNYf5GuvlbC/lASuv27+DUH5uFC35r+D2RCAGwnO3ReAAAAAElFTkSuQmCC;" parent="5ZmH1evjWhEYVLYZDHqn-61" vertex="1">
          <mxGeometry x="3" y="11.25" width="66.5" height="11.874999999999998" as="geometry" />
        </mxCell>
        <mxCell id="5ZmH1evjWhEYVLYZDHqn-62" value="Bastion host" style="text;html=1;strokeColor=none;fillColor=none;align=center;verticalAlign=middle;whiteSpace=wrap;rounded=0;" parent="5ZmH1evjWhEYVLYZDHqn-63" vertex="1">
          <mxGeometry x="13.75" y="47.757352941176464" width="52.5" height="8.125" as="geometry" />
        </mxCell>
        <mxCell id="5ZmH1evjWhEYVLYZDHqn-33" value="Object Store" style="outlineConnect=0;fontColor=#232F3E;gradientColor=none;fillColor=#277116;strokeColor=none;dashed=0;verticalLabelPosition=bottom;verticalAlign=top;align=center;html=1;fontSize=12;fontStyle=0;aspect=fixed;pointerEvents=1;shape=mxgraph.aws4.bucket_with_objects;" parent="1" vertex="1">
          <mxGeometry x="1060" y="556" width="67.31" height="70" as="geometry" />
        </mxCell>
        <mxCell id="5ZmH1evjWhEYVLYZDHqn-6" value="" style="shape=cylinder;whiteSpace=wrap;html=1;boundedLbl=1;backgroundOutline=1;" parent="1" vertex="1">
          <mxGeometry x="1040.0000000000002" y="676" width="64.93" height="83" as="geometry" />
        </mxCell>
        <mxCell id="5ZmH1evjWhEYVLYZDHqn-35" value="" style="shape=image;verticalLabelPosition=bottom;labelBackgroundColor=#ffffff;verticalAlign=top;aspect=fixed;imageAspect=0;image=https://blog.knoldus.com/wp-content/uploads/2020/06/postgresql-logo.png;" parent="1" vertex="1">
          <mxGeometry x="1048.9400000000003" y="706" width="47.05" height="43" as="geometry" />
        </mxCell>
        <mxCell id="5ZmH1evjWhEYVLYZDHqn-14" value="ABIS" style="rounded=1;whiteSpace=wrap;html=1;" parent="1" vertex="1">
          <mxGeometry x="470" y="816" width="120" height="60" as="geometry" />
        </mxCell>
        <mxCell id="5ZmH1evjWhEYVLYZDHqn-36" value="HSM" style="points=[[0,0,0],[0.25,0,0],[0.5,0,0],[0.75,0,0],[1,0,0],[0,1,0],[0.25,1,0],[0.5,1,0],[0.75,1,0],[1,1,0],[0,0.25,0],[0,0.5,0],[0,0.75,0],[1,0.25,0],[1,0.5,0],[1,0.75,0]];outlineConnect=0;fontColor=#232F3E;gradientColor=#F54749;gradientDirection=north;fillColor=#C7131F;strokeColor=#ffffff;dashed=0;verticalLabelPosition=bottom;verticalAlign=top;align=center;html=1;fontSize=12;fontStyle=0;aspect=fixed;shape=mxgraph.aws4.resourceIcon;resIcon=mxgraph.aws4.cloudhsm;" parent="1" vertex="1">
          <mxGeometry x="990" y="456" width="40" height="40" as="geometry" />
        </mxCell>
        <mxCell id="5ZmH1evjWhEYVLYZDHqn-28" value="" style="group" parent="1" vertex="1" connectable="0">
          <mxGeometry x="840" y="836" width="60" height="70" as="geometry" />
        </mxCell>
        <mxCell id="5ZmH1evjWhEYVLYZDHqn-17" value="" style="points=[[0,0,0],[0.25,0,0],[0.5,0,0],[0.75,0,0],[1,0,0],[0,1,0],[0.25,1,0],[0.5,1,0],[0.75,1,0],[1,1,0],[0,0.25,0],[0,0.5,0],[0,0.75,0],[1,0.25,0],[1,0.5,0],[1,0.75,0]];outlineConnect=0;fontColor=#232F3E;gradientColor=#F54749;gradientDirection=north;fillColor=#C7131F;strokeColor=#ffffff;dashed=0;verticalLabelPosition=bottom;verticalAlign=top;align=center;html=1;fontSize=12;fontStyle=0;aspect=fixed;shape=mxgraph.aws4.resourceIcon;resIcon=mxgraph.aws4.identity_and_access_management;" parent="5ZmH1evjWhEYVLYZDHqn-28" vertex="1">
          <mxGeometry width="45.12853574018856" height="45.12853574018856" as="geometry" />
        </mxCell>
        <mxCell id="5ZmH1evjWhEYVLYZDHqn-18" value="IAM (keycloak)" style="text;html=1;strokeColor=none;fillColor=none;align=center;verticalAlign=middle;whiteSpace=wrap;rounded=0;" parent="5ZmH1evjWhEYVLYZDHqn-28" vertex="1">
          <mxGeometry x="8.846153846153868" y="53.58962336720414" width="42.307692307692314" height="16.410376632795842" as="geometry" />
        </mxCell>
        <mxCell id="5ZmH1evjWhEYVLYZDHqn-88" value="" style="endArrow=classic;html=1;entryX=0.402;entryY=0.988;entryDx=0;entryDy=0;entryPerimeter=0;exitX=0.5;exitY=0;exitDx=0;exitDy=0;" parent="1" source="5ZmH1evjWhEYVLYZDHqn-21" target="5ZmH1evjWhEYVLYZDHqn-1" edge="1">
          <mxGeometry width="50" height="50" relative="1" as="geometry">
            <mxPoint x="530" y="836" as="sourcePoint" />
            <mxPoint x="580" y="786" as="targetPoint" />
          </mxGeometry>
        </mxCell>
        <mxCell id="5ZmH1evjWhEYVLYZDHqn-92" value="" style="endArrow=classic;html=1;entryX=1;entryY=0.75;entryDx=0;entryDy=0;entryPerimeter=0;" parent="1" source="5ZmH1evjWhEYVLYZDHqn-44" target="5ZmH1evjWhEYVLYZDHqn-17" edge="1">
          <mxGeometry width="50" height="50" relative="1" as="geometry">
            <mxPoint x="1012.5" y="986" as="sourcePoint" />
            <mxPoint x="1062.5" y="936" as="targetPoint" />
          </mxGeometry>
        </mxCell>
        <mxCell id="5ZmH1evjWhEYVLYZDHqn-100" value="" style="endArrow=classic;html=1;entryX=0.537;entryY=0.002;entryDx=0;entryDy=0;entryPerimeter=0;exitX=0.404;exitY=1.057;exitDx=0;exitDy=0;exitPerimeter=0;" parent="1" source="5ZmH1evjWhEYVLYZDHqn-41" target="5ZmH1evjWhEYVLYZDHqn-1" edge="1">
          <mxGeometry width="50" height="50" relative="1" as="geometry">
            <mxPoint x="680" y="406" as="sourcePoint" />
            <mxPoint x="790" y="446" as="targetPoint" />
          </mxGeometry>
        </mxCell>
        <mxCell id="5ZmH1evjWhEYVLYZDHqn-104" value="" style="endArrow=classic;html=1;entryX=0.71;entryY=0.045;entryDx=0;entryDy=0;entryPerimeter=0;" parent="1" source="5ZmH1evjWhEYVLYZDHqn-39" edge="1" target="5ZmH1evjWhEYVLYZDHqn-1">
          <mxGeometry width="50" height="50" relative="1" as="geometry">
            <mxPoint x="900" y="416" as="sourcePoint" />
            <mxPoint x="830" y="506" as="targetPoint" />
          </mxGeometry>
        </mxCell>
        <mxCell id="5ZmH1evjWhEYVLYZDHqn-106" value="" style="endArrow=classic;startArrow=classic;html=1;exitX=0.997;exitY=0.443;exitDx=0;exitDy=0;exitPerimeter=0;" parent="1" source="5ZmH1evjWhEYVLYZDHqn-1" target="5ZmH1evjWhEYVLYZDHqn-33" edge="1">
          <mxGeometry width="50" height="50" relative="1" as="geometry">
            <mxPoint x="930" y="626" as="sourcePoint" />
            <mxPoint x="970" y="576" as="targetPoint" />
          </mxGeometry>
        </mxCell>
        <mxCell id="5ZmH1evjWhEYVLYZDHqn-109" value="" style="endArrow=classic;startArrow=classic;html=1;entryX=0.763;entryY=0.924;entryDx=0;entryDy=0;exitX=0.5;exitY=0;exitDx=0;exitDy=0;exitPerimeter=0;entryPerimeter=0;" parent="1" source="5ZmH1evjWhEYVLYZDHqn-17" target="5ZmH1evjWhEYVLYZDHqn-1" edge="1">
          <mxGeometry width="50" height="50" relative="1" as="geometry">
            <mxPoint x="720" y="846" as="sourcePoint" />
            <mxPoint x="770" y="796" as="targetPoint" />
          </mxGeometry>
        </mxCell>
        <mxCell id="5ZmH1evjWhEYVLYZDHqn-114" value="" style="endArrow=classic;startArrow=classic;html=1;entryX=-0.005;entryY=0.533;entryDx=0;entryDy=0;entryPerimeter=0;" parent="1" source="_CfNvKZe25XXiAyTABDu-3" target="5ZmH1evjWhEYVLYZDHqn-5" edge="1">
          <mxGeometry width="50" height="50" relative="1" as="geometry">
            <mxPoint x="547.94" y="686" as="sourcePoint" />
            <mxPoint x="620" y="626" as="targetPoint" />
          </mxGeometry>
        </mxCell>
        <mxCell id="_CfNvKZe25XXiAyTABDu-2" value="Load Balancer" style="outlineConnect=0;fontColor=#232F3E;gradientColor=none;fillColor=#5A30B5;strokeColor=none;dashed=0;verticalLabelPosition=bottom;verticalAlign=top;align=center;html=1;fontSize=12;fontStyle=0;aspect=fixed;pointerEvents=1;shape=mxgraph.aws4.network_load_balancer;" parent="1" vertex="1">
          <mxGeometry x="505.44000000000005" y="581" width="31" height="31" as="geometry" />
        </mxCell>
        <mxCell id="_CfNvKZe25XXiAyTABDu-3" value="Load Balancer&lt;br&gt;" style="outlineConnect=0;fontColor=#232F3E;gradientColor=none;fillColor=#5A30B5;strokeColor=none;dashed=0;verticalLabelPosition=bottom;verticalAlign=top;align=center;html=1;fontSize=12;fontStyle=0;aspect=fixed;pointerEvents=1;shape=mxgraph.aws4.network_load_balancer;" parent="1" vertex="1">
          <mxGeometry x="504" y="678" width="31" height="31" as="geometry" />
        </mxCell>
        <mxCell id="_CfNvKZe25XXiAyTABDu-5" value="" style="endArrow=classic;startArrow=classic;html=1;" parent="1" source="_CfNvKZe25XXiAyTABDu-2" target="_CfNvKZe25XXiAyTABDu-4" edge="1">
          <mxGeometry width="50" height="50" relative="1" as="geometry">
            <mxPoint x="540" y="646" as="sourcePoint" />
            <mxPoint x="590" y="596" as="targetPoint" />
          </mxGeometry>
        </mxCell>
        <mxCell id="_CfNvKZe25XXiAyTABDu-8" value="" style="endArrow=classic;startArrow=classic;html=1;exitX=1;exitY=0.5;exitDx=0;exitDy=0;" parent="1" source="5ZmH1evjWhEYVLYZDHqn-60" target="_CfNvKZe25XXiAyTABDu-3" edge="1">
          <mxGeometry width="50" height="50" relative="1" as="geometry">
            <mxPoint x="470" y="726" as="sourcePoint" />
            <mxPoint x="520" y="676" as="targetPoint" />
          </mxGeometry>
        </mxCell>
        <mxCell id="_CfNvKZe25XXiAyTABDu-11" value="Internet" style="ellipse;shape=cloud;whiteSpace=wrap;html=1;" parent="1" vertex="1">
          <mxGeometry x="110" y="505" width="210" height="260" as="geometry" />
        </mxCell>
        <mxCell id="_CfNvKZe25XXiAyTABDu-12" value="" style="endArrow=classic;startArrow=classic;html=1;exitX=0.909;exitY=0.351;exitDx=0;exitDy=0;exitPerimeter=0;" parent="1" source="_CfNvKZe25XXiAyTABDu-11" target="_CfNvKZe25XXiAyTABDu-2" edge="1">
          <mxGeometry width="50" height="50" relative="1" as="geometry">
            <mxPoint x="350" y="646" as="sourcePoint" />
            <mxPoint x="490" y="616" as="targetPoint" />
            <Array as="points">
              <mxPoint x="360" y="596" />
            </Array>
          </mxGeometry>
        </mxCell>
        <mxCell id="_CfNvKZe25XXiAyTABDu-13" value="" style="endArrow=classic;startArrow=classic;html=1;exitX=0.96;exitY=0.712;exitDx=0;exitDy=0;exitPerimeter=0;" parent="1" edge="1" source="_CfNvKZe25XXiAyTABDu-11">
          <mxGeometry width="50" height="50" relative="1" as="geometry">
            <mxPoint x="350" y="690" as="sourcePoint" />
            <mxPoint x="397" y="690" as="targetPoint" />
          </mxGeometry>
        </mxCell>
        <mxCell id="_CfNvKZe25XXiAyTABDu-14" value="&lt;font style=&quot;font-size: 12px&quot;&gt;&lt;i&gt;https://api.mosip.net&lt;/i&gt;&lt;/font&gt;" style="text;html=1;strokeColor=none;fillColor=none;align=center;verticalAlign=middle;whiteSpace=wrap;rounded=0;" parent="1" vertex="1">
          <mxGeometry x="360" y="572" width="61" height="14" as="geometry" />
        </mxCell>
        <mxCell id="_CfNvKZe25XXiAyTABDu-20" value="&lt;font style=&quot;font-size: 12px&quot;&gt;&lt;i&gt;https://api-internal.mosip.net&lt;/i&gt;&lt;/font&gt;" style="text;html=1;strokeColor=none;fillColor=none;align=center;verticalAlign=middle;whiteSpace=wrap;rounded=0;" parent="1" vertex="1">
          <mxGeometry x="300" y="651" width="230" height="20" as="geometry" />
        </mxCell>
        <mxCell id="_CfNvKZe25XXiAyTABDu-22" value="" style="endArrow=none;html=1;entryX=0.115;entryY=0.597;entryDx=0;entryDy=0;entryPerimeter=0;" parent="1" source="5ZmH1evjWhEYVLYZDHqn-7" target="_CfNvKZe25XXiAyTABDu-11" edge="1">
          <mxGeometry width="50" height="50" relative="1" as="geometry">
            <mxPoint x="90" y="646" as="sourcePoint" />
            <mxPoint x="160" y="607" as="targetPoint" />
          </mxGeometry>
        </mxCell>
        <mxCell id="_CfNvKZe25XXiAyTABDu-28" value="" style="endArrow=classic;startArrow=classic;html=1;exitX=0.417;exitY=0.016;exitDx=0;exitDy=0;exitPerimeter=0;" parent="1" source="5ZmH1evjWhEYVLYZDHqn-14" target="_CfNvKZe25XXiAyTABDu-3" edge="1">
          <mxGeometry width="50" height="50" relative="1" as="geometry">
            <mxPoint x="490" y="796" as="sourcePoint" />
            <mxPoint x="540" y="746" as="targetPoint" />
          </mxGeometry>
        </mxCell>
        <mxCell id="_CfNvKZe25XXiAyTABDu-30" value="Public" style="text;html=1;strokeColor=none;fillColor=none;align=center;verticalAlign=middle;whiteSpace=wrap;rounded=0;" parent="1" vertex="1">
          <mxGeometry x="550" y="566" width="40" height="20" as="geometry" />
        </mxCell>
        <mxCell id="_CfNvKZe25XXiAyTABDu-31" value="Internal" style="text;html=1;strokeColor=none;fillColor=none;align=center;verticalAlign=middle;whiteSpace=wrap;rounded=0;" parent="1" vertex="1">
          <mxGeometry x="550" y="664" width="40" height="20" as="geometry" />
        </mxCell>
        <mxCell id="MJHEj-P5fFqU32tHb_-H-1" value="S3 API" style="text;html=1;strokeColor=none;fillColor=none;align=center;verticalAlign=middle;whiteSpace=wrap;rounded=0;rotation=-15;" parent="1" vertex="1">
          <mxGeometry x="968.4000000000001" y="592.5" width="40" height="20" as="geometry" />
        </mxCell>
        <mxCell id="MJHEj-P5fFqU32tHb_-H-2" value="OpenId&lt;br&gt;OAuth2.0" style="text;html=1;strokeColor=none;fillColor=none;align=center;verticalAlign=middle;whiteSpace=wrap;rounded=0;" parent="1" vertex="1">
          <mxGeometry x="864" y="787" width="40" height="20" as="geometry" />
        </mxCell>
        <mxCell id="5ZmH1evjWhEYVLYZDHqn-107" value="" style="endArrow=classic;startArrow=classic;html=1;entryX=0;entryY=0.5;entryDx=0;entryDy=0;exitX=0.948;exitY=0.72;exitDx=0;exitDy=0;exitPerimeter=0;" parent="1" source="5ZmH1evjWhEYVLYZDHqn-1" target="5ZmH1evjWhEYVLYZDHqn-6" edge="1">
          <mxGeometry width="50" height="50" relative="1" as="geometry">
            <mxPoint x="900" y="716" as="sourcePoint" />
            <mxPoint x="950" y="706" as="targetPoint" />
          </mxGeometry>
        </mxCell>
        <mxCell id="5ZmH1evjWhEYVLYZDHqn-21" value="" style="shape=image;verticalLabelPosition=bottom;labelBackgroundColor=#ffffff;verticalAlign=top;aspect=fixed;imageAspect=0;image=https://rancher.com/img/brand-guidelines/assets/logos/png/color/rancher-logo-stacked-color.png;" parent="1" vertex="1">
          <mxGeometry x="680" y="846" width="87.74181818181819" height="44.54545454545455" as="geometry" />
        </mxCell>
        <mxCell id="jAywxGqHWvosadUpjKuu-1" value="" style="endArrow=classic;html=1;entryX=0.5;entryY=1;entryDx=0;entryDy=0;" edge="1" parent="1" source="5ZmH1evjWhEYVLYZDHqn-43" target="5ZmH1evjWhEYVLYZDHqn-21">
          <mxGeometry width="50" height="50" relative="1" as="geometry">
            <mxPoint x="700" y="976" as="sourcePoint" />
            <mxPoint x="750" y="926" as="targetPoint" />
          </mxGeometry>
        </mxCell>
      </root>
    </mxGraphModel>
  </diagram>
</mxfile>
